<svg width="52" height="52" viewBox="0 0 52 52" fill="none" xmlns="http://www.w3.org/2000/svg">
<path d="M30.5955 26L39 17.5868C39.5457 16.9666 39.8347 16.1619 39.8084 15.3363C39.782 14.5107 39.4422 13.726 38.8581 13.1419C38.274 12.5578 37.4894 12.218 36.6637 12.1917C35.8381 12.1653 35.0334 12.4543 34.4132 13L26 21.4045L17.5717 12.974C17.2698 12.6721 16.9114 12.4326 16.517 12.2693C16.1226 12.1059 15.6998 12.0218 15.2729 12.0218C14.8459 12.0218 14.4232 12.1059 14.0288 12.2693C13.6343 12.4326 13.2759 12.6721 12.974 12.974C12.6722 13.2759 12.4327 13.6343 12.2693 14.0287C12.1059 14.4231 12.0218 14.8459 12.0218 15.2728C12.0218 15.6998 12.1059 16.1225 12.2693 16.517C12.4327 16.9114 12.6722 17.2698 12.974 17.5717L21.4045 26L13 34.411C12.6704 34.7056 12.4044 35.0644 12.2182 35.4654C12.0321 35.8664 11.9297 36.3012 11.9173 36.7431C11.9049 37.185 11.9828 37.6248 12.1463 38.0356C12.3098 38.4464 12.5553 38.8195 12.8679 39.1321C13.1805 39.4447 13.5536 39.6903 13.9644 39.8537C14.3752 40.0172 14.815 40.0951 15.2569 40.0828C15.6989 40.0704 16.1336 39.968 16.5346 39.7818C16.9356 39.5956 17.2944 39.3296 17.589 39L26 30.5955L34.4024 39C35.0121 39.6097 35.839 39.9522 36.7012 39.9522C37.5634 39.9522 38.3904 39.6097 39 39C39.6097 38.3903 39.9523 37.5634 39.9523 36.7012C39.9523 35.8389 39.6097 35.012 39 34.4023L30.5955 26Z" fill="#62333F"/>
</svg>
