<svg width="44" height="44" viewBox="0 0 44 44" fill="none" xmlns="http://www.w3.org/2000/svg">
<circle cx="22" cy="22" r="20" stroke="#61323E" stroke-width="3.67646"/>
<path d="M25.7374 31.9775C23.9843 32.6424 23.5378 33.9973 21.4684 34.71C19.978 35.2233 18.7036 35.1245 17.7934 33.7095C16.5445 31.7677 18.2879 29.032 19.2765 26.5225C20.0224 24.6293 19.3946 21.7198 21.5385 20.9067C23.6823 20.0936 25.1419 22.6876 26.9557 23.6099C29.3598 24.8326 32.4789 25.724 32.8319 28.0057C33.0892 29.6684 32.2008 30.5874 30.7448 31.1917C28.723 32.0306 27.4904 31.3126 25.7374 31.9775Z" fill="#61323E"/>
<path d="M13.471 18.5498C14.4362 21.0945 16.291 22.8971 17.7629 22.3388C19.2347 21.7806 19.8756 19.0315 18.9105 16.4868C17.9453 13.9421 15.9867 12.2521 14.8349 12.689C13.107 13.3443 12.5059 16.0051 13.471 18.5498Z" fill="#61323E"/>
<path d="M10.8575 26.7143C10.3236 25.3065 10.0302 21.831 11.374 21.3214C12.5259 20.8844 14.2319 22.2945 15.1032 24.5918C15.9745 26.889 15.9769 29.0183 14.6331 29.528C13.7495 29.8631 11.7289 29.0117 10.8576 26.7145L10.8575 26.7143Z" fill="#61323E"/>
<path d="M26.0128 13.7929C26.9779 16.3376 26.785 18.9169 25.3131 19.4751C23.8413 20.0333 21.5385 18.4007 20.5733 15.856C19.6082 13.3113 19.9535 10.7475 21.1053 10.3107C22.8331 9.65534 25.0476 11.2482 26.0128 13.7929Z" fill="#61323E"/>
<path d="M33.3832 18.1708C32.8492 16.763 30.764 13.9671 29.4202 14.4768C28.2683 14.9137 27.9265 17.1004 28.7978 19.3977C29.6691 21.695 31.0794 23.2902 32.4232 22.7805C33.3067 22.4454 34.2545 20.4682 33.3832 18.1709L33.3832 18.1708Z" fill="#61323E"/>
</svg>
