<svg width="60" height="60" viewBox="0 0 60 60" fill="none" xmlns="http://www.w3.org/2000/svg">
<path d="M50.1315 11.7602C46.3771 10.0036 42.3626 8.72693 38.1657 8C37.6502 8.93189 37.048 10.1853 36.6329 11.1824C32.1714 10.5114 27.7509 10.5114 23.3715 11.1824C22.9564 10.1853 22.3405 8.93189 21.8205 8C17.6189 8.72693 13.5999 10.0082 9.84547 11.7695C2.27272 23.2129 0.219873 34.3721 1.2463 45.3728C6.26894 49.1236 11.1365 51.4021 15.9219 52.893C17.1034 51.2669 18.1572 49.5383 19.065 47.7165C17.3361 47.0595 15.6801 46.2488 14.1154 45.3076C14.5305 45.0001 14.9366 44.6785 15.3289 44.3477C24.8723 48.8114 35.2415 48.8114 44.6709 44.3477C45.0678 44.6785 45.4738 45.0001 45.8844 45.3076C44.3151 46.2534 42.6546 47.0641 40.9256 47.7212C41.8334 49.5383 42.8827 51.2716 44.0688 52.8977C48.8588 51.4067 53.7308 49.1283 58.7535 45.3728C59.9578 32.6201 56.6961 21.5634 50.1315 11.7602ZM20.3652 38.6074C17.5003 38.6074 15.1509 35.9329 15.1509 32.676C15.1509 29.4191 17.4502 26.74 20.3652 26.74C23.2803 26.74 25.6296 29.4144 25.5794 32.676C25.584 35.9329 23.2803 38.6074 20.3652 38.6074ZM39.6346 38.6074C36.7698 38.6074 34.4204 35.9329 34.4204 32.676C34.4204 29.4191 36.7195 26.74 39.6346 26.74C42.5496 26.74 44.899 29.4144 44.8489 32.676C44.8489 35.9329 42.5496 38.6074 39.6346 38.6074Z" fill="#302C26"/>
</svg>
