<svg width="60" height="61" viewBox="0 0 60 61" fill="none" xmlns="http://www.w3.org/2000/svg">
<path d="M19.9961 6.29688C12.2781 6.29688 6 12.5808 6 20.3008V40.3008C6 48.0188 12.2839 54.2969 20.0039 54.2969H40.0039C47.7219 54.2969 54 48.013 54 40.293V20.293C54 12.575 47.7161 6.29688 39.9961 6.29688H19.9961ZM44 14.2969C45.104 14.2969 46 15.1929 46 16.2969C46 17.4009 45.104 18.2969 44 18.2969C42.896 18.2969 42 17.4009 42 16.2969C42 15.1929 42.896 14.2969 44 14.2969ZM30 18.2969C36.618 18.2969 42 23.6789 42 30.2969C42 36.9149 36.618 42.2969 30 42.2969C23.382 42.2969 18 36.9149 18 30.2969C18 23.6789 23.382 18.2969 30 18.2969ZM30 22.2969C27.8783 22.2969 25.8434 23.1397 24.3431 24.64C22.8429 26.1403 22 28.1751 22 30.2969C22 32.4186 22.8429 34.4534 24.3431 35.9537C25.8434 37.454 27.8783 38.2969 30 38.2969C32.1217 38.2969 34.1566 37.454 35.6569 35.9537C37.1571 34.4534 38 32.4186 38 30.2969C38 28.1751 37.1571 26.1403 35.6569 24.64C34.1566 23.1397 32.1217 22.2969 30 22.2969Z" fill="#302C26"/>
</svg>
