<svg width="60" height="61" viewBox="0 0 60 61" fill="none" xmlns="http://www.w3.org/2000/svg">
<g clip-path="url(#clip0_130_30109)">
<path d="M59.8781 6.6138C59.8299 6.39237 59.7238 6.18771 59.5706 6.0207C59.4174 5.85369 59.2227 5.73031 59.0062 5.66317C58.2184 5.50779 57.4033 5.56606 56.6456 5.83192C56.6456 5.83192 4.07624 24.7263 1.07436 26.8188C0.425614 27.2688 0.209989 27.5294 0.103114 27.8388C-0.416261 29.3275 1.19999 29.9838 1.19999 29.9838L14.7487 34.3994C14.9776 34.439 15.2125 34.4249 15.435 34.3582C18.5175 32.4119 46.4456 14.7757 48.06 14.1832C48.3131 14.1063 48.5006 14.1832 48.4594 14.3707C47.7994 16.6319 23.6812 38.065 23.5481 38.1963C23.4834 38.2494 23.4325 38.3174 23.3999 38.3945C23.3672 38.4715 23.3537 38.5554 23.3606 38.6388L22.1006 51.8594C22.1006 51.8594 21.5719 55.9844 25.6894 51.8594C28.6087 48.9363 31.41 46.5175 32.8144 45.3419C37.4737 48.5575 42.4875 52.1144 44.6494 53.9669C45.0121 54.3193 45.4421 54.5948 45.9138 54.7772C46.3854 54.9595 46.889 55.0449 47.3944 55.0282C49.4569 54.9494 50.0194 52.6938 50.0194 52.6938C50.0194 52.6938 59.5969 14.1532 59.9194 8.98755C59.9494 8.4813 59.9925 8.15692 59.9962 7.81005C60.0133 7.40773 59.9736 7.00501 59.8781 6.6138Z" fill="#302C26"/>
</g>
<defs>
<clipPath id="clip0_130_30109">
<rect width="60" height="60" fill="white" transform="translate(0 0.296875)"/>
</clipPath>
</defs>
</svg>
