<svg width="60" height="61" viewBox="0 0 60 61" fill="none" xmlns="http://www.w3.org/2000/svg">
<g clip-path="url(#clip0_130_30113)">
<path d="M60 11.7344C57.75 12.6719 55.5 13.4219 52.875 13.6094C55.5 12.1094 57.375 9.67188 58.3125 6.85938C55.875 8.35938 53.25 9.29687 50.4375 9.85937C48.1875 7.42187 45 5.92188 41.625 5.92188C34.875 5.92188 29.25 11.3594 29.25 18.2969C29.25 19.2344 29.4375 20.1719 29.625 21.1094C19.3125 20.5469 10.3125 15.6719 4.125 8.17187C3 10.0469 2.4375 12.1094 2.4375 14.3594C2.4375 18.6719 4.6875 22.4219 7.875 24.6719C5.8125 24.6719 3.9375 24.1094 2.25 23.1719V23.3594C2.25 29.3594 6.5625 34.2344 12.1875 35.3594C11.0625 35.5469 10.125 35.7344 9 35.7344C8.25 35.7344 7.5 35.7344 6.75 35.5469C8.25 40.4219 12.9375 43.9844 18.1875 44.1719C14.0625 47.5469 8.625 49.4219 2.8125 49.4219C1.875 49.4219 0.75 49.4219 -0.1875 49.2344C5.4375 52.6094 12 54.6719 18.9375 54.6719C41.625 54.6719 54 35.9219 54 19.6094C54 19.0469 54 18.4844 54 18.1094C56.25 16.2344 58.3125 14.1719 60 11.7344Z" fill="#302C26"/>
</g>
<defs>
<clipPath id="clip0_130_30113">
<rect width="60" height="60" fill="white" transform="translate(0 0.296875)"/>
</clipPath>
</defs>
</svg>
