<svg width="629" height="421" viewBox="0 0 629 421" fill="none" xmlns="http://www.w3.org/2000/svg">
<path d="M628.729 3.56591C627.51 4.3419 614.85 1.49288 608.952 2.01391C603.055 2.53494 602.434 0.461914 600.882 0.461914C599.33 0.461914 593.432 5.12899 587.845 5.38396C582.258 5.63893 582.258 3.56591 579.154 2.53494C576.05 1.50397 574.498 4.08693 570.463 6.426C566.428 8.754 560.22 7.46806 553.391 10.5721C546.562 13.676 545.01 21.6245 540.044 22.1455C535.077 22.6665 531.973 21.8905 530.732 22.1455C529.49 22.4005 525.765 24.4735 519.868 25.3936C518.792 25.5599 517.662 25.9922 516.52 26.5798C511.62 26.0255 507.363 25.449 504.193 25.449C485.447 25.449 485.447 47.0452 471.9 51.6236C467.898 52.9761 461.346 50.6481 453.476 54.6833C450.649 53.5858 442.501 50.6148 438.388 51.5128C434.275 52.4107 420.917 71.8502 414.753 67.0057C408.59 62.1613 400.375 70.8968 396.262 70.8968C392.15 70.8968 388.037 81.798 379.822 80.0021C371.608 78.2173 366.464 78.8492 359.269 77.9513C352.075 77.0533 347.685 75.59 339.47 74.7808C331.245 73.9826 325.791 74.7253 320.658 77.4191C315.525 80.1019 303.797 74.4593 293.52 78.0399C283.244 81.6206 279.198 72.4749 269.952 69.7922C260.707 67.1095 257.78 63.2295 245.741 66.3113C243.18 66.9653 227.117 55.0886 225.332 54.3681C211.863 48.8917 204.292 53.5921 200.367 52.5611C196.432 51.5191 195.312 46.6683 186.898 45.6263C178.473 44.5842 171.179 45.9699 167.243 45.4489C163.319 44.9279 152.089 51.6791 148.719 50.9031C145.349 50.1271 137.489 43.2761 133.565 43.3204C129.641 43.3759 125.14 45.4489 125.14 45.4489C125.14 45.4489 101.927 27.1562 93.6567 26.3691C78.1478 24.8837 68.3703 28.0985 63.3152 27.0675C58.2601 26.0255 40.257 20.2942 32.9626 20.8706C25.6683 21.436 1.32411 23.2873 0.259888 24.3737V419.629L628.74 420.25V106.064V3.56591H628.729Z" fill="#FFC328"/>
<g clip-path="url(#clip0_105_5090)">
<path d="M166.919 35.8226C166.787 35.8237 166.655 35.8492 166.532 35.896C166.883 35.5361 167.435 35.388 167.919 35.5234C167.857 35.4869 167.794 35.4501 167.73 35.4136C168.224 35.3978 168.651 35.5845 169.105 35.6705C169.571 35.7107 170.034 35.6556 170.477 35.4899C170.992 35.3645 171.429 35.0939 171.873 34.8166C173.862 33.8309 175.777 35.7148 178.179 34.3621C178.355 34.2476 178.507 34.1013 178.663 33.9622C179.361 33.3365 180.213 32.8281 181.144 32.6741C181.527 32.6218 181.395 32.2573 181.469 32.0028C181.502 31.9305 181.566 31.8747 181.592 31.799C181.627 31.6979 181.586 31.5882 181.548 31.4875C181.376 31.0337 181.255 30.5437 181.332 30.0644C181.319 30.0707 181.313 30.068 181.3 30.0752C181.224 29.557 181.04 29.488 181.63 29.2797C182.153 29.19 182.603 29.5993 183.018 29.8597C182.989 29.8352 182.97 29.7991 182.967 29.7609C183.465 29.8172 183.835 29.7974 184.215 30.1792C184.207 30.1512 184.244 30.1481 184.261 30.1612C184.437 30.2421 184.464 30.4351 184.483 30.6062C184.529 30.7682 184.693 30.7437 184.826 30.751C184.982 30.76 185.136 30.7761 185.29 30.8041C185.661 30.8899 186.182 31.0124 186.361 31.3807C186.501 31.4127 186.763 31.5281 186.662 31.7058C186.539 32.0028 188.097 32.3545 188.354 32.4535C188.592 32.5032 188.418 32.7587 188.37 32.8961C188.512 33.3908 188.131 33.5699 187.71 33.6338C187.865 33.7116 187.894 33.9404 187.8 34.085C187.584 34.3938 187.157 34.3074 186.834 34.2727C186.577 34.2324 186.349 34.3217 186.146 34.4669C186.009 34.5268 185.847 34.4931 185.709 34.5476C185.42 34.6542 185.878 35.0175 185.805 35.5081C185.749 35.3609 185.595 35.2446 185.451 35.1797C185.612 35.2918 185.612 35.5827 185.565 35.7505C185.441 35.6351 185.237 35.5669 185.069 35.5876C185.136 35.6031 185.197 35.638 185.243 35.6882C185.13 35.6885 185.016 35.6983 184.904 35.7179C184.941 35.7652 184.929 35.8508 184.98 35.8829C185.124 35.9746 185.223 36.1349 185.241 36.3042C185.21 36.262 185.142 36.2144 185.092 36.1972C185.263 36.3577 185.361 36.5912 185.359 36.8242C185.334 36.7009 185.201 36.5989 185.078 36.5701C185.294 36.7971 185.335 37.132 185.298 37.4312C185.231 37.298 185.103 37.2031 184.963 37.1516C185.079 37.21 185.135 37.3654 185.083 37.4845C185.07 37.4022 184.933 37.402 184.894 37.4761C184.818 37.652 185.038 37.7611 185.129 37.8777C185.088 37.8323 185.027 37.8062 184.967 37.8068C184.776 37.9782 184.822 38.2831 184.883 38.5323C184.985 39.06 185.202 39.3269 185.725 39.4579C186.599 39.7375 186.848 40.476 187.796 40.5953C188.607 40.8943 187.999 41.7365 187.199 41.4341C186.657 41.2204 186.2 41.1837 185.641 41.3691C185.349 41.2764 185.047 41.1702 184.759 41.0713C184.698 41.0503 184.633 41.0291 184.569 41.0391C184.401 41.0656 184.323 41.2848 184.157 41.3225C184.155 41.2445 184.151 41.1665 184.148 41.0885C184.094 41.1755 184.04 41.2625 183.985 41.3487C183.832 41.0576 183.575 40.8234 183.272 40.6957C183.526 41.0395 183.734 41.429 184.017 41.7476C184.111 41.8103 184.234 41.7937 184.346 41.806C184.564 41.8301 184.762 41.9814 184.842 42.1846C184.987 42.5043 184.704 42.798 184.38 42.8137C183.427 42.8954 182.87 41.7233 181.956 41.6575C181.934 41.7055 181.912 41.7541 181.89 41.8021C181.552 41.5711 181.195 41.3669 180.824 41.1924L180.922 41.5599C180.433 40.7611 180.756 40.8473 179.795 40.7464C179.452 40.6492 179.431 41.0568 179.166 40.8902C179.016 40.8363 178.708 40.5411 178.572 40.6647C178.531 40.7186 178.568 40.8052 178.525 40.8581C178.496 40.8945 178.444 40.8985 178.398 40.8996C178.171 40.9039 177.945 40.9079 177.719 40.9122C177.837 41.1547 178.004 41.3732 178.206 41.5523C178.01 41.5196 177.822 41.4504 177.653 41.3479C177.753 41.451 177.855 41.5535 177.955 41.6569C177.56 41.4163 177.166 41.1759 176.771 40.9353C176.835 41.0127 176.898 41.0901 176.961 41.1683C176.601 40.9741 176.24 40.7807 175.878 40.5871C175.966 40.6531 176.054 40.7198 176.142 40.7856C175.752 40.6943 175.364 40.6032 174.974 40.5119C175.019 40.5665 175.065 40.6204 175.11 40.6741C174.778 40.494 174.446 40.3138 174.115 40.1337C174.139 40.1674 174.149 40.2111 174.144 40.2521C173.362 39.6876 172.932 40.9343 172.26 41.0948C171.968 41.1543 171.711 41.2772 171.511 41.5029C170.776 42.1877 169.795 42.7434 169.458 43.743C169.415 43.9043 169.279 44.0875 169.133 43.9454C168.867 43.7119 169.116 43.5077 168.903 43.33C168.767 43.1693 168.867 42.9272 168.97 42.744C169.209 42.3852 169.346 41.8891 169.727 41.6583C169.691 41.6493 169.714 41.6109 169.736 41.5983C169.906 41.4676 170.068 41.317 170.159 41.1232C170.268 40.8951 170.259 40.533 170.003 40.4194C169.86 40.4112 169.718 40.3802 169.575 40.3667C168.991 40.3888 168.868 41.1508 168.376 41.3581C168.358 41.5601 168.114 41.7941 167.915 41.7398C167.773 41.7061 167.679 41.5325 167.517 41.5272C167.33 41.5415 167.206 41.4002 167.219 41.211C167.209 40.9755 167.367 40.8007 167.498 40.6294C167.425 40.6408 167.346 40.6733 167.294 40.716C167.318 40.458 167.623 40.295 167.845 40.198C167.938 40.1126 168.039 40.0336 168.139 39.9554C168.578 39.5385 169.136 39.2307 169.419 38.674C169.616 38.3985 169.335 38.1174 169.089 38.0045C169.174 37.9518 169.284 37.9379 169.38 37.9682C169.348 37.9324 169.317 37.8967 169.286 37.8611C169.333 37.8491 169.379 37.837 169.426 37.8252C169.337 37.7613 169.242 37.7059 169.142 37.6606C169.184 37.6097 169.238 37.5678 169.296 37.5376C169.255 37.5027 169.193 37.4927 169.143 37.5133C169.157 37.4226 169.192 37.3356 169.245 37.2611C169.202 37.2829 169.162 37.314 169.131 37.3509C169.151 37.2829 169.171 37.2141 169.192 37.1453C168.799 37.258 168.408 37.4345 168.138 37.7439C168.164 37.6199 168.219 37.5072 168.292 37.4038C168.123 37.4925 167.932 37.6636 167.742 37.69C167.778 37.5719 167.894 37.4557 168.018 37.3526C167.885 37.4253 167.761 37.5129 167.649 37.6191C167.647 37.5991 167.647 37.5789 167.647 37.5589C167.424 37.7929 167.201 38.0278 166.978 38.2618C166.881 38.0427 166.826 37.8044 166.817 37.5646C166.765 37.6849 166.712 37.8062 166.659 37.9265C166.587 37.6832 166.565 37.4253 166.595 37.1735C166.5 37.2543 166.422 37.3565 166.369 37.4694C166.312 37.0887 166.394 36.6892 166.597 36.3618C166.471 36.4382 166.345 36.5136 166.218 36.59C166.341 36.2564 166.599 35.9754 166.92 35.822L166.919 35.8226Z" fill="#FFC328"/>
</g>
<path d="M456.526 45.2075C456.431 44.861 456.368 44.5048 456.343 44.1456C456.063 43.476 456.219 42.6504 456.379 41.9487C456.426 41.7398 456.396 41.4787 456.471 41.2792C456.767 40.1982 455.572 39.2616 456.002 37.6278C456.093 37.1972 456.263 36.7873 456.337 36.3537C456.464 35.4118 456.305 34.454 456.285 33.5065C456.244 33.2754 456.363 33.0923 456.488 32.913C456.638 32.6074 456.445 32.1453 456.72 31.9476C456.77 31.9889 456.821 32.0282 456.871 32.0695C456.771 31.8837 456.985 31.6122 457.185 31.6879C457.23 31.4854 457.536 31.5356 457.525 31.7354C457.699 31.5925 457.836 31.8608 457.812 32.025C458.124 31.8322 458.084 32.8377 458.078 33.0063C457.998 33.4676 457.907 33.9258 457.948 34.3974C457.969 35.2616 457.959 36.1272 457.918 36.9898C457.906 37.2668 457.706 37.9253 458.097 37.8808C458.994 37.6691 459.257 36.8534 460.33 37.243C460.734 37.1554 460.525 36.6258 460.574 36.3378C460.832 35.6596 461.406 35.6213 460.922 34.7091C460.638 34.2496 460.114 33.6106 460.55 33.0947C460.75 32.9615 460.813 32.7655 460.833 32.5328C460.915 32.2515 461.165 32.0107 461.412 31.8616C461.58 31.7982 461.758 31.9201 461.896 32.039C462.181 32.286 462.452 32.547 462.709 32.8224C462.934 33.1147 463.241 33.2743 463.606 33.24C465.074 33.36 465.561 35.3207 466.894 35.7249C467.442 35.7977 467.952 36.2375 467.302 36.6509C467.031 36.8777 466.099 36.7674 466.13 37.208C465.85 37.9757 465.913 38.8396 465.608 39.5979C465.511 39.8401 465.353 40.0871 465.105 40.1582C464.674 40.2116 463.993 40.0927 464.311 40.7865C465.285 42.6455 463.387 42.8119 464.295 44.6593C464.701 45.6575 463.641 46.4069 464.562 47.8563C464.748 48.1068 464.914 48.3629 464.978 48.6714C465.047 48.8375 465.2 48.9516 465.285 49.1099C465.343 49.2363 465.415 49.4362 465.585 49.3979C465.561 50.1124 466.636 51.0756 466.422 49.8032C466.315 49.3803 465.98 49.5677 466.064 49.4469C465.93 49.4391 465.796 49.4154 465.667 49.3725C465.663 49.314 465.671 49.2555 465.691 49.2016C465.636 49.2221 465.58 49.2412 465.525 49.2601C465.502 49.1746 465.477 49.0891 465.452 49.002C465.195 48.9667 464.882 48.4786 465.058 48.2359C464.892 48.0253 465.22 47.7676 465.38 47.6473C465.356 47.6473 465.335 47.6473 465.313 47.6457C465.51 47.5316 465.741 47.4812 465.967 47.5017C465.944 47.489 465.919 47.4747 465.895 47.462C466.197 47.4146 466.513 47.4747 466.777 47.6298C466.763 47.5982 466.75 47.5648 466.738 47.5332C466.925 47.674 467.178 47.7692 467.41 47.8007C467.48 47.7295 467.634 47.9943 467.646 47.8244C468.255 48.1648 468.769 48.679 469.107 49.2949C469.123 49.3334 469.183 49.3879 469.207 49.3296C469.499 50.0609 469.249 50.9772 468.624 51.4488C468.045 51.9461 467.093 51.852 466.574 52.4236C466.394 53.0061 466.082 53.2051 465.47 53.2609C464.426 53.3828 463.365 53.3529 462.329 53.1738C462.176 53.1468 462.012 53.1199 461.872 53.1897C461.366 53.6185 461.54 53.4858 460.936 53.4033C460.743 53.4747 460.477 53.4189 460.474 53.169C460.253 53.1563 460.03 53.3809 459.836 53.272C459.789 53.245 459.752 53.2008 459.699 53.1897C459.558 53.207 459.417 53.2051 459.461 53.0126C460.036 52.2163 458.472 51.4515 458.708 50.189C458.669 50.1235 458.702 50.0591 458.748 49.9927C459.007 49.7303 458.706 49.4599 458.627 49.2045C458.603 49.2509 458.555 49.2086 458.537 49.1759C458.008 48.2678 457.356 47.3795 457.026 46.3761C457.023 46.4126 457.018 46.449 457.013 46.4854C456.804 46.0944 456.649 45.6751 456.557 45.2415C456.54 45.2431 456.53 45.2226 456.526 45.2067V45.2075Z" fill="#FFC328"/>
<defs>
<clipPath id="clip0_105_5090">
<rect width="22.2587" height="14.73" fill="white" transform="translate(166.218 29.2671)"/>
</clipPath>
</defs>
</svg>
