<svg width="142" height="189" viewBox="0 0 142 189" fill="none" xmlns="http://www.w3.org/2000/svg">
<path d="M15.8966 71.3264H16.3966V70.8264C16.3966 68.8508 16.383 66.9081 16.3695 64.9878C16.3406 60.8755 16.3124 56.8655 16.4206 52.8535C16.9999 31.3771 31.4316 11.4322 51.6281 4.04277C74.0078 -4.14546 97.9489 2.10255 113.094 20.2737C121.696 30.5942 125.77 42.6115 125.701 56.052C125.684 59.3673 125.689 62.6838 125.693 66.0717C125.695 67.639 125.697 69.2216 125.697 70.8264V71.3264H126.197C127.3 71.3264 128.386 71.3263 129.461 71.3261C131.833 71.3258 134.149 71.3256 136.466 71.3267C138.578 71.3278 139.776 71.6503 140.475 72.3419C141.172 73.032 141.498 74.2148 141.498 76.3044C141.498 83.2846 141.498 90.2648 141.499 97.245C141.5 122.259 141.502 147.274 141.494 172.288C141.493 176.238 140.437 179.639 138.498 182.296C136.56 184.952 133.718 186.893 130.095 187.893C128.573 188.314 126.918 188.47 125.302 188.471C89.0751 188.504 52.8479 188.507 16.6208 188.489C11.8117 188.487 7.79285 186.841 4.97677 184.027C2.16071 181.213 0.513685 177.198 0.510928 172.393C0.494968 144.573 0.49984 116.753 0.504713 88.933C0.505476 84.5741 0.506239 80.2153 0.506922 75.8564C0.507197 74.1163 0.863049 73.0267 1.53632 72.358C2.21075 71.6882 3.31105 71.334 5.06223 71.3287C7.47373 71.3215 9.88471 71.3231 12.405 71.3249C13.5432 71.3256 14.7037 71.3264 15.8966 71.3264ZM102.464 71.2441H102.964V70.7441C102.964 69.1144 102.968 67.4988 102.972 65.8936C102.984 61.8008 102.995 57.7748 102.932 53.7522C102.903 51.8869 102.66 49.9905 102.234 48.176C98.3146 31.5201 83.331 21.2246 66.3411 23.4442C52.8152 25.2113 41.1228 36.4666 39.5122 50.0404C38.9896 54.445 39.0026 58.9323 39.0154 63.3837C39.0211 65.3481 39.0267 67.3056 38.9863 69.2458C38.9791 69.5906 39.0115 69.9555 39.0431 70.3106C39.0571 70.469 39.071 70.6255 39.0812 70.7774L39.1123 71.2441H39.58H102.464ZM70.8787 158.001C71.6288 158.001 72.3827 158.007 73.1388 158.012C74.8488 158.025 76.5698 158.038 78.2829 157.986C79.9947 157.934 81.3567 157.414 82.2349 156.398C83.1126 155.382 83.4282 153.962 83.2423 152.277C83.0181 150.245 82.7906 148.214 82.5631 146.184C82.0311 141.435 81.4995 136.689 81.0103 131.937C80.9883 131.723 81.0257 131.429 81.124 131.139C81.2237 130.845 81.3642 130.618 81.4954 130.5C85.8077 126.625 87.6475 121.877 87.0835 116.074C86.1781 106.758 76.1393 99.83 67.0669 102.382C60.714 104.169 56.5679 108.298 55.1603 114.687C53.8025 120.85 55.6986 126.213 60.4689 130.455C60.6143 130.584 60.7716 130.803 60.8857 131.058C61.0019 131.316 61.045 131.548 61.03 131.695C60.3507 138.357 59.6303 145.015 58.8345 151.662C58.5914 153.693 58.8364 155.31 59.799 156.417C60.7632 157.526 62.332 157.991 64.409 158.002C66.0447 158.011 67.681 158.007 69.3151 158.004C69.8366 158.003 70.3578 158.002 70.8787 158.001Z" fill="#302C26" stroke="#F9F1E7"/>
</svg>
