<svg width="33" height="33" viewBox="0 0 33 33" fill="none" xmlns="http://www.w3.org/2000/svg">
<path d="M7.16663 20.8677C5.92412 20.8677 5.30286 20.8677 4.8128 20.6647C4.1594 20.3941 3.64026 19.8749 3.36961 19.2215C3.16663 18.7315 3.16663 18.1102 3.16663 16.8677V7.80103C3.16663 6.30756 3.16663 5.56082 3.45728 4.99039C3.71294 4.48862 4.12089 4.08067 4.62265 3.82501C5.19308 3.53436 5.93982 3.53436 7.43329 3.53436H16.5C17.7425 3.53436 18.3637 3.53436 18.8538 3.73735C19.5072 4.008 20.0263 4.52713 20.297 5.18054C20.5 5.6706 20.5 6.29185 20.5 7.53436M16.7666 30.201H25.5666C27.0601 30.201 27.8068 30.201 28.3773 29.9104C28.879 29.6547 29.287 29.2468 29.5426 28.745C29.8333 28.1746 29.8333 27.4278 29.8333 25.9344V17.1344C29.8333 15.6409 29.8333 14.8942 29.5426 14.3237C29.287 13.822 28.879 13.414 28.3773 13.1583C27.8068 12.8677 27.0601 12.8677 25.5666 12.8677H16.7666C15.2732 12.8677 14.5264 12.8677 13.956 13.1583C13.4542 13.414 13.0463 13.822 12.7906 14.3237C12.5 14.8942 12.5 15.6409 12.5 17.1344V25.9344C12.5 27.4278 12.5 28.1746 12.7906 28.745C13.0463 29.2468 13.4542 29.6547 13.956 29.9104C14.5264 30.201 15.2732 30.201 16.7666 30.201Z" stroke="white" stroke-width="3" stroke-linecap="round" stroke-linejoin="round"/>
</svg>
