<svg width="1648" height="349" viewBox="0 0 1648 349" fill="none" xmlns="http://www.w3.org/2000/svg">
<path d="M93.1174 221.759L1.81104 137.324L1646.88 60.7434V281.322H396.207L93.1174 221.759Z" fill="#D19262" stroke="#262E38" stroke-width="1.18167"/>
<path opacity="0.2" d="M1552.93 177.564L1604.26 97.3979L1595.42 94.1945L1546.04 179.305L1585.99 186.715L1586.57 186.821L1586.47 187.395L1576.87 243.796L1576.87 243.796L1567.17 300.631L1567.17 300.631L1566.1 306.912L1626.21 306.912L1614.73 187.81L1553.33 178.466L1552.44 178.33L1552.93 177.564Z" fill="#262E38" stroke="#262E38" stroke-width="1.18167"/>
<path d="M93.1174 221.759L1.81104 137.324L268.266 126.851L221.742 197.868L247.057 233.868L396.207 281.322L93.1174 221.759Z" fill="black" fill-opacity="0.4" stroke="#262E38" stroke-width="1.18167"/>
<path d="M238.163 154.014L1.81116 137.324C150.049 118.124 392.638 76.2558 574.355 63.6887C801.501 47.9799 1090.64 30.6347 1201.48 24.0894C1290.15 18.8531 1523.04 7.18056 1646.88 1.18066V97.3972C1514.83 105.579 1255.39 120.371 1126.22 124.56C997.049 128.749 745.364 126.306 635.668 124.56L238.163 154.014Z" fill="#F7D5B1" stroke="#262E38" stroke-width="1.18167"/>
<path opacity="0.4" d="M297.824 199.366L382.614 194.421L382.686 194.417L382.755 194.396L454.325 172.162V173.742L382.478 198.707L297.824 199.366Z" fill="black" fill-opacity="0.2" stroke="#262E38" stroke-width="1.18167"/>
<path opacity="0.4" d="M544.586 217.974L517.076 204.944L624.049 213.832L544.586 217.974Z" fill="black" fill-opacity="0.2" stroke="#262E38" stroke-width="1.18167"/>
<path d="M881.447 217.724L881.837 217.67L881.938 217.289L905.56 127.442H936.792L982.466 314.719L717.005 298.469L718.382 240.182L881.447 217.724Z" fill="black" fill-opacity="0.2" stroke="#262E38" stroke-width="1.18167"/>
<path opacity="0.4" d="M707.571 126.139L670.792 271.298L733.598 129.684L733.598 126.454L707.571 126.139Z" fill="#010101" fill-opacity="0.2" stroke="#262E38" stroke-width="1.18167"/>
<path opacity="0.04" d="M734.187 125.869L706.82 125.542L951.755 39.4708L998.279 36.5254L734.187 125.869Z" fill="#262E38" stroke="#262E38" stroke-width="1.18167"/>
<path d="M1584.22 187.037L1404.13 154.278L1364.11 154.278L1325.68 161.64L1584.22 187.037Z" fill="#F7D5B1" stroke="#262E38" stroke-width="1.18167"/>
<path d="M1586.78 263.867L1599.47 190.138L1505.33 180.854L1505.33 180.854L1386.13 169.015L1386.13 169.015L1323.99 162.866L1334.36 206.922L1334.36 206.923L1342.14 239.79L1342.15 239.791L1366.3 342.341L1366.3 342.341L1367.51 347.493L1572.34 347.493L1573.84 338.793L1573.84 338.793L1586.78 263.867L1586.78 263.867Z" fill="#E19E6A" stroke="#262E38" stroke-width="1.18167"/>
<path d="M1573.33 338.793L1586.12 264.523L1525.8 261.442L1525.36 261.42L1525.25 261L1504.54 180.813L1386 169.015L1386 169.015L1323.99 162.866L1334.33 206.923L1334.33 206.923L1342.11 239.79L1342.11 239.791L1366.21 342.341L1366.21 342.341L1367.42 347.493L1571.83 347.493L1573.33 338.793L1573.33 338.793Z" fill="#AE794F" stroke="#262E38" stroke-width="1.18167"/>
</svg>
