<svg width="684" height="348" viewBox="0 0 684 348" fill="none" xmlns="http://www.w3.org/2000/svg">
<path d="M73.1315 221.578L1.99988 137.143L682.716 60.5627V281.141H192.042L73.1315 221.578Z" fill="#D19262" stroke="#262E38" stroke-width="1.18167"/>
<path opacity="0.2" d="M645.837 178.252L645.35 178.064L645.478 177.558L665.688 97.1096L662.774 94.4173L643.47 179.221L659.039 186.581L659.403 186.753L659.376 187.154L655.609 243.556L655.065 243.519L655.609 243.556L651.804 300.391L651.381 306.732L674.247 306.732L669.742 187.525L645.837 178.252Z" fill="#262E38" stroke="#262E38" stroke-width="1.18167"/>
<path d="M73.1315 221.578L1.99988 137.143L141.847 126.671L123.595 197.688L133.526 233.687L192.042 281.141L73.1315 221.578Z" fill="black" fill-opacity="0.4" stroke="#262E38" stroke-width="1.18167"/>
<path d="M130.037 153.834L2 137.143C60.1579 117.943 194.565 76.0751 265.858 63.508C354.974 47.7992 464.489 30.454 507.974 23.9087C542.761 18.6724 634.132 6.9999 682.716 1V97.2166C630.911 105.398 529.125 120.191 478.447 124.38C427.769 128.569 329.026 126.125 285.989 124.38L130.037 153.834Z" fill="#F7D5B1" stroke="#262E38" stroke-width="1.18167"/>
<path opacity="0.4" d="M153.487 199.184L186.783 194.236L186.939 194.212L187.063 194.114L214.485 172.401V173.716L186.467 198.531L153.487 199.184Z" fill="black" fill-opacity="0.2" stroke="#262E38" stroke-width="1.18167"/>
<path opacity="0.4" d="M250.455 217.762L239.747 204.835L281.386 213.653L250.455 217.762Z" fill="black" fill-opacity="0.2" stroke="#262E38" stroke-width="1.18167"/>
<path d="M382.579 217.515L382.933 217.391L382.971 217.019L392.23 127.261H403.774L421.687 314.476L318.259 298.338L318.8 239.905L382.579 217.515Z" fill="black" fill-opacity="0.2" stroke="#262E38" stroke-width="1.18167"/>
<path opacity="0.4" d="M314.552 125.969L301.058 261.723L324.051 129.577L324.051 126.262L314.552 125.969Z" fill="#010101" fill-opacity="0.2" stroke="#262E38" stroke-width="1.18167"/>
<path opacity="0.04" d="M324.642 125.689L313.905 125.361L410 39.2901L428.252 36.3447L324.642 125.689Z" fill="#262E38" stroke="#262E38" stroke-width="1.18167"/>
<path d="M657.825 186.763L587.371 154.097L571.894 154.097L556.796 161.468L657.825 186.763Z" fill="#F7D5B1" stroke="#262E38" stroke-width="1.18167"/>
<path d="M556.401 162.793L560.467 206.823L560.467 206.824L563.523 239.691L563.523 239.692L573 342.241L572.412 342.296L573 342.242L573.469 347.313L653.116 347.313L653.7 338.673L654.29 338.713L653.7 338.673L658.776 263.747L658.776 263.747L663.766 189.884L627.06 180.658L627.059 180.658L580.295 168.82L580.294 168.819L556.401 162.793Z" fill="#E19E6A" stroke="#262E38" stroke-width="1.18167"/>
<path d="M556.401 162.793L560.459 206.824L560.459 206.824L563.508 239.691L563.508 239.692L572.966 342.242L573.433 347.313L652.915 347.313L653.498 338.673L654.088 338.713L653.498 338.673L658.525 264.301L635.147 261.257L634.683 261.197L634.636 260.731L626.511 180.556L580.244 168.82L580.243 168.819L556.401 162.793Z" fill="#AE794F" stroke="#262E38" stroke-width="1.18167"/>
</svg>
