<svg width="842" height="630" viewBox="0 0 842 630" fill="none" xmlns="http://www.w3.org/2000/svg">
<path opacity="0.5" d="M747.175 314.827C747.175 488.701 606.222 629.654 432.348 629.654C258.474 629.654 117.521 488.701 117.521 314.827C117.521 140.953 258.474 0 432.348 0C606.222 0 747.175 140.953 747.175 314.827ZM166.887 314.827C166.887 461.437 285.738 580.288 432.348 580.288C578.958 580.288 697.809 461.437 697.809 314.827C697.809 168.217 578.958 49.3658 432.348 49.3658C285.738 49.3658 166.887 168.217 166.887 314.827Z" fill="#FFD491"/>
<mask id="path-2-outside-1_98_3186" maskUnits="userSpaceOnUse" x="213.72" y="337.199" width="369" height="247" fill="black">
<rect fill="white" x="213.72" y="337.199" width="369" height="247"/>
<path d="M220.062 472.822C260.248 526.816 319.498 563.469 385.753 575.32C452.009 587.171 520.291 573.33 576.702 536.614L458.039 354.299C447.999 360.833 435.847 363.297 424.055 361.188C412.263 359.078 401.719 352.555 394.567 342.946L220.062 472.822Z"/>
</mask>
<path d="M220.062 472.822C260.248 526.816 319.498 563.469 385.753 575.32C452.009 587.171 520.291 573.33 576.702 536.614L458.039 354.299C447.999 360.833 435.847 363.297 424.055 361.188C412.263 359.078 401.719 352.555 394.567 342.946L220.062 472.822Z" fill="#D8EAAB"/>
<path d="M220.062 472.822C260.248 526.816 319.498 563.469 385.753 575.32C452.009 587.171 520.291 573.33 576.702 536.614L458.039 354.299C447.999 360.833 435.847 363.297 424.055 361.188C412.263 359.078 401.719 352.555 394.567 342.946L220.062 472.822Z" stroke="#302C26" stroke-width="8" mask="url(#path-2-outside-1_98_3186)"/>
<mask id="path-3-outside-2_98_3186" maskUnits="userSpaceOnUse" x="452.72" y="335.199" width="204" height="205" fill="black">
<rect fill="white" x="452.72" y="335.199" width="204" height="205"/>
<path d="M579.891 534.505C607.579 515.91 631.501 492.247 650.399 464.765L471.155 341.512C467.792 346.403 463.534 350.614 458.606 353.924L579.891 534.505Z"/>
</mask>
<path d="M579.891 534.505C607.579 515.91 631.501 492.247 650.399 464.765L471.155 341.512C467.792 346.403 463.534 350.614 458.606 353.924L579.891 534.505Z" fill="#7DBAFF"/>
<path d="M579.891 534.505C607.579 515.91 631.501 492.247 650.399 464.765L471.155 341.512C467.792 346.403 463.534 350.614 458.606 353.924L579.891 534.505Z" stroke="#302C26" stroke-width="8" mask="url(#path-3-outside-2_98_3186)"/>
<mask id="path-4-outside-3_98_3186" maskUnits="userSpaceOnUse" x="465.72" y="322.199" width="226" height="147" fill="black">
<rect fill="white" x="465.72" y="322.199" width="226" height="147"/>
<path d="M651.697 462.859C667.231 439.841 679.045 414.522 686.706 387.831L477.616 327.82C476.253 332.57 474.15 337.076 471.386 341.173L651.697 462.859Z"/>
</mask>
<path d="M651.697 462.859C667.231 439.841 679.045 414.522 686.706 387.831L477.616 327.82C476.253 332.57 474.15 337.076 471.386 341.173L651.697 462.859Z" fill="#FF927D"/>
<path d="M651.697 462.859C667.231 439.841 679.045 414.522 686.706 387.831L477.616 327.82C476.253 332.57 474.15 337.076 471.386 341.173L651.697 462.859Z" stroke="#302C26" stroke-width="8" mask="url(#path-4-outside-3_98_3186)"/>
<mask id="path-5-outside-4_98_3186" maskUnits="userSpaceOnUse" x="472.72" y="299.199" width="229" height="92" fill="black">
<rect fill="white" x="472.72" y="299.199" width="229" height="92"/>
<path d="M687.19 386.124C694.671 359.382 697.897 331.629 696.749 303.884L479.404 312.879C479.608 317.817 479.034 322.756 477.703 327.516L687.19 386.124Z"/>
</mask>
<path d="M687.19 386.124C694.671 359.382 697.897 331.629 696.749 303.884L479.404 312.879C479.608 317.817 479.034 322.756 477.703 327.516L687.19 386.124Z" fill="#AF7DFF"/>
<path d="M687.19 386.124C694.671 359.382 697.897 331.629 696.749 303.884L479.404 312.879C479.608 317.817 479.034 322.756 477.703 327.516L687.19 386.124Z" stroke="#302C26" stroke-width="8" mask="url(#path-5-outside-4_98_3186)"/>
<mask id="path-6-outside-5_98_3186" maskUnits="userSpaceOnUse" x="163.72" y="46.1995" width="538" height="433" fill="black">
<rect fill="white" x="163.72" y="46.1995" width="538" height="433"/>
<path d="M696.568 300.16C694.282 258.961 682.392 218.868 661.85 183.082C641.307 147.297 612.681 116.811 578.257 94.06C543.834 71.3088 504.567 56.9226 463.593 52.0506C422.62 47.1786 381.074 51.9556 342.275 66.0003C303.477 80.045 268.5 102.968 240.139 132.939C211.777 162.909 190.818 199.096 178.934 238.61C167.049 278.124 164.57 319.87 171.694 360.513C178.817 401.156 195.347 439.57 219.961 472.687L394.549 342.922C390.168 337.028 387.226 330.191 385.958 322.958C384.691 315.724 385.132 308.295 387.247 301.263C389.362 294.23 393.092 287.79 398.14 282.456C403.187 277.122 409.412 273.042 416.317 270.543C423.222 268.043 430.616 267.193 437.909 268.06C445.201 268.927 452.189 271.487 458.316 275.537C464.442 279.586 469.537 285.011 473.193 291.38C476.849 297.749 478.965 304.884 479.372 312.217L696.568 300.16Z"/>
</mask>
<path d="M696.568 300.16C694.282 258.961 682.392 218.868 661.85 183.082C641.307 147.297 612.681 116.811 578.257 94.06C543.834 71.3088 504.567 56.9226 463.593 52.0506C422.62 47.1786 381.074 51.9556 342.275 66.0003C303.477 80.045 268.5 102.968 240.139 132.939C211.777 162.909 190.818 199.096 178.934 238.61C167.049 278.124 164.57 319.87 171.694 360.513C178.817 401.156 195.347 439.57 219.961 472.687L394.549 342.922C390.168 337.028 387.226 330.191 385.958 322.958C384.691 315.724 385.132 308.295 387.247 301.263C389.362 294.23 393.092 287.79 398.14 282.456C403.187 277.122 409.412 273.042 416.317 270.543C423.222 268.043 430.616 267.193 437.909 268.06C445.201 268.927 452.189 271.487 458.316 275.537C464.442 279.586 469.537 285.011 473.193 291.38C476.849 297.749 478.965 304.884 479.372 312.217L696.568 300.16Z" fill="#FFD491"/>
<path d="M696.568 300.16C694.282 258.961 682.392 218.868 661.85 183.082C641.307 147.297 612.681 116.811 578.257 94.06C543.834 71.3088 504.567 56.9226 463.593 52.0506C422.62 47.1786 381.074 51.9556 342.275 66.0003C303.477 80.045 268.5 102.968 240.139 132.939C211.777 162.909 190.818 199.096 178.934 238.61C167.049 278.124 164.57 319.87 171.694 360.513C178.817 401.156 195.347 439.57 219.961 472.687L394.549 342.922C390.168 337.028 387.226 330.191 385.958 322.958C384.691 315.724 385.132 308.295 387.247 301.263C389.362 294.23 393.092 287.79 398.14 282.456C403.187 277.122 409.412 273.042 416.317 270.543C423.222 268.043 430.616 267.193 437.909 268.06C445.201 268.927 452.189 271.487 458.316 275.537C464.442 279.586 469.537 285.011 473.193 291.38C476.849 297.749 478.965 304.884 479.372 312.217L696.568 300.16Z" stroke="#302C26" stroke-width="8" mask="url(#path-6-outside-5_98_3186)"/>
<path d="M318.015 195.703C317.647 195.887 317.279 196.071 316.911 196.163C314.887 196.807 312.771 197.083 310.655 196.899C310.011 196.807 309.459 196.715 308.907 196.439C307.895 196.071 307.159 195.151 306.791 194.139C306.515 193.495 306.423 192.667 306.423 192.023C306.423 191.839 306.699 190.643 306.607 190.551C306.423 190.367 305.687 190.459 305.411 190.459C304.215 190.459 302.835 190.459 301.731 190.735C299.891 191.195 299.983 192.207 299.799 193.955C299.431 197.727 299.431 201.591 299.523 205.455C302.375 205.823 305.411 205.731 308.263 206.283C311.207 206.743 314.151 208.031 315.807 210.515C316.175 211.067 316.543 211.711 317.003 212.263C317.279 212.723 317.739 213.091 318.015 213.551C318.843 214.655 319.027 216.127 319.119 217.507C319.395 220.175 319.211 222.935 318.751 225.603C318.291 228.087 317.647 230.479 316.543 232.687C315.531 234.803 314.059 235.631 312.035 236.735C306.883 239.587 299.339 240.967 293.819 238.391C290.691 236.919 288.391 233.883 287.103 230.571C285.815 227.259 285.447 223.671 285.171 220.083C284.803 216.679 284.619 213.275 284.711 209.871C284.803 205.731 285.263 201.683 285.815 197.635C286.551 191.655 287.287 185.859 290.875 180.799C292.347 178.683 294.555 176.751 297.223 176.199C297.867 176.015 298.511 175.923 299.247 175.831C300.903 175.647 302.467 175.463 304.123 175.371C306.883 175.279 309.643 175.371 312.035 176.475C314.795 177.763 316.911 180.155 318.015 183.007C318.843 185.031 319.211 187.239 319.303 189.447C319.303 191.103 319.763 193.955 318.567 195.243C318.383 195.427 318.199 195.611 318.015 195.703ZM298.971 219.531C298.879 221.739 299.155 223.855 299.523 226.063C299.615 227.351 300.167 228.087 301.455 228.179C303.571 228.455 305.779 228.639 306.883 226.615C307.159 226.063 307.435 225.511 307.619 224.959C308.355 223.027 307.895 220.819 306.607 219.255C305.319 217.691 303.295 216.771 301.363 216.587C300.627 216.587 299.707 216.679 299.339 217.323C299.155 217.599 299.063 217.967 299.063 218.243C298.971 218.703 298.971 219.071 298.971 219.531ZM349.858 232.043C349.122 233.699 348.202 235.263 346.914 236.459C344.798 238.667 342.59 238.943 339.738 239.127C336.702 239.495 333.39 240.415 330.538 238.851C328.882 237.931 327.502 236.459 326.49 234.895C322.994 229.651 322.258 223.119 321.89 216.771C321.614 212.815 321.154 208.675 321.614 204.811C322.166 200.763 322.626 196.807 323.178 192.759C323.914 188.435 324.834 183.927 327.41 180.339C332.01 174.175 341.67 174.635 347.926 177.395C348.754 177.671 349.582 178.131 350.226 178.775C350.962 179.511 351.33 180.431 351.79 181.351C353.446 185.031 354.55 188.343 354.458 192.391C354.458 195.427 354.458 198.463 354.366 201.499C354.274 210.975 353.906 220.911 350.686 229.927C350.41 230.663 350.134 231.399 349.858 232.043ZM340.382 192.391C339.83 191.747 339.186 191.563 338.358 191.563C336.518 191.471 335.23 192.759 335.138 194.599C335.138 196.439 334.954 198.371 334.954 200.211C335.046 201.959 335.138 203.707 335.23 205.455C335.506 209.687 335.046 213.919 334.862 218.059C334.862 219.623 334.862 221.095 334.954 222.567C335.046 223.763 336.61 224.775 337.714 224.591C338.45 224.407 339.094 224.223 339.83 223.947C340.658 223.579 341.302 223.119 341.394 222.107C341.578 220.727 341.578 219.347 341.578 217.967C341.67 216.679 341.578 215.391 341.578 214.103C341.67 212.263 341.854 210.423 341.762 208.675C341.67 205.179 341.486 201.683 341.302 198.279C341.21 196.255 341.118 194.323 340.382 192.391ZM371.895 195.887C372.079 195.703 372.171 195.427 372.355 195.243C374.103 192.667 374.287 189.723 374.379 186.963C374.379 186.043 374.379 185.123 374.379 184.295C374.471 183.099 373.827 182.087 372.907 181.075C372.723 180.799 372.447 180.523 372.079 180.247C371.711 180.063 371.343 179.971 370.883 179.879C367.479 179.051 362.235 178.959 359.751 180.799C358.371 181.811 357.819 183.099 357.451 184.387C357.175 185.583 356.899 186.687 356.623 187.883C356.347 189.079 356.623 190.275 356.807 191.379C356.991 193.219 357.359 195.151 359.291 196.715C359.843 197.175 360.579 197.543 361.407 197.819C362.971 198.371 364.811 198.003 366.467 197.911C367.939 197.911 369.227 197.819 370.331 197.175C370.975 196.807 371.527 196.347 371.895 195.887ZM366.835 184.295C367.203 184.847 367.203 185.399 367.295 185.951C367.387 186.963 367.479 187.975 367.571 188.987C367.571 189.539 367.479 190.091 367.479 190.643C367.387 191.011 367.479 191.379 367.479 191.747C367.387 192.207 367.387 192.575 367.295 192.943C367.295 193.219 366.927 193.403 366.467 193.495C366.099 193.587 365.731 193.587 365.363 193.679C364.719 193.771 363.891 193.495 363.891 193.127C363.799 192.667 363.799 192.207 363.799 191.747C363.891 190.551 364.167 189.355 363.983 188.067C363.891 187.607 363.891 187.055 363.891 186.595C363.891 186.043 363.891 185.491 363.983 184.939C363.983 184.387 364.719 184.019 365.731 184.019C366.099 184.019 366.467 184.111 366.835 184.295ZM399.311 232.871C399.403 232.687 399.587 232.503 399.771 232.319C401.427 229.651 401.611 226.707 401.703 223.947C401.795 223.119 401.795 222.199 401.795 221.279C401.795 220.083 401.243 219.163 400.323 218.059C400.139 217.783 399.863 217.507 399.495 217.323C399.127 217.139 398.667 217.047 398.207 216.863C394.803 216.127 389.651 215.943 387.167 217.783C385.787 218.795 385.235 220.175 384.867 221.463C384.499 222.567 384.315 223.763 384.039 224.959C383.763 226.063 384.039 227.259 384.131 228.455C384.407 230.295 384.775 232.227 386.615 233.699C387.259 234.159 387.903 234.619 388.823 234.895C390.387 235.355 392.135 235.079 393.791 234.987C395.355 234.895 396.551 234.803 397.747 234.159C398.391 233.791 398.851 233.423 399.311 232.871ZM394.159 221.279C394.527 221.831 394.619 222.475 394.711 223.027C394.711 224.039 394.895 225.051 394.895 226.063C394.895 226.615 394.895 227.075 394.803 227.627C394.803 227.995 394.803 228.363 394.803 228.823C394.803 229.191 394.803 229.559 394.711 230.019C394.711 230.295 394.251 230.387 393.883 230.479C393.515 230.571 393.055 230.663 392.687 230.663C392.135 230.755 391.307 230.479 391.215 230.111C391.123 229.743 391.215 229.283 391.215 228.823C391.307 227.627 391.491 226.339 391.399 225.143C391.307 224.591 391.215 224.131 391.215 223.579C391.215 223.027 391.307 222.475 391.307 221.923C391.399 221.371 392.043 221.003 393.055 221.003C393.515 221.003 393.883 221.095 394.159 221.279ZM389.099 192.575C386.339 207.203 382.567 222.015 378.335 236.551C377.415 239.771 375.667 240.139 372.815 240.047C371.619 239.955 370.515 239.495 370.055 238.575C369.687 238.023 369.687 237.287 369.595 236.551C369.411 230.663 370.423 224.499 371.343 218.427C372.263 212.447 373.183 206.467 374.195 200.487C374.747 196.807 375.299 193.035 376.495 189.263C377.507 185.859 378.059 182.363 379.439 178.867C379.715 178.223 379.991 177.487 380.543 177.027C382.843 175.003 390.571 174.359 391.399 177.119C391.675 177.855 391.491 178.683 391.399 179.511C390.755 183.835 390.019 188.159 389.099 192.575Z" fill="#302C26"/>
<path d="M353.443 464.292C352.707 464.384 351.971 464.568 351.235 464.568C349.119 464.752 346.911 464.384 344.795 464.2C343.875 464.108 343.139 463.832 342.403 463.464C341.943 462.36 341.851 461.164 341.851 460.06C341.667 456.748 341.667 453.62 341.667 450.4C341.759 448.56 341.851 446.536 342.863 444.972C343.691 443.684 345.163 442.764 346.635 442.304C348.199 441.844 349.763 441.752 351.327 441.66C353.535 441.476 355.651 441.292 357.859 441.2C362.183 440.832 367.979 441.936 371.015 445.34C373.775 448.468 373.039 452.424 373.315 456.196C373.591 460.06 373.867 464.384 371.659 467.88C371.015 468.892 370.187 469.72 369.359 470.64C366.691 473.4 364.115 476.068 361.447 478.828C358.595 481.772 355.467 485.176 355.007 489.316C354.915 489.776 354.915 490.144 355.099 490.604C355.375 491.248 356.111 491.616 356.847 491.8C357.767 492.076 358.687 492.168 359.515 491.984C362.551 491.248 361.999 487.568 362.091 485.176C362.183 483.796 362.643 483.06 364.023 482.508C365.495 481.956 367.059 481.68 368.715 481.772C371.475 481.956 373.683 483.888 374.051 486.556C374.143 487.476 374.235 488.488 374.235 489.408C374.235 493.18 374.327 496.952 373.959 500.724C373.867 502.196 373.131 503.116 372.303 504.128C372.119 504.404 371.659 504.588 371.383 504.68C370.095 504.864 368.899 505.048 367.703 505.232C366.691 505.324 365.771 505.324 364.851 505.416C363.011 505.6 361.171 505.784 359.423 505.876C357.951 505.876 356.571 505.692 355.099 505.692C352.891 505.6 350.683 505.508 348.567 505.416C346.819 505.324 345.255 504.956 343.875 503.852C343.231 503.392 342.863 502.84 342.771 502.104C342.587 500.54 342.311 498.976 342.219 497.504C342.127 493.272 341.391 488.672 342.863 484.624C343.691 482.232 344.703 479.748 346.175 477.632C348.475 474.228 351.327 471.468 354.363 468.708C355.559 467.604 356.663 466.5 357.859 465.396C358.595 464.752 359.331 464.016 359.883 463.188C361.079 461.532 361.539 459.048 360.251 457.208C358.411 456.472 356.479 456.564 354.455 456.84C354.179 459.232 354.547 461.808 353.443 464.292ZM409.073 499.988C408.889 502.84 407.877 505.14 404.473 505.416C402.725 505.416 401.069 505.692 399.413 505.6C398.309 505.6 397.205 505.508 396.377 504.864C395.641 504.128 395.457 502.932 395.273 501.92C394.997 498.7 394.905 495.48 395.181 492.26C395.181 491.984 395.181 491.708 394.905 491.524C394.813 491.432 394.629 491.34 394.537 491.34C389.753 490.42 384.877 491.432 380.093 491.064C378.897 490.972 377.701 490.788 376.965 489.868C376.321 489.04 376.229 487.936 376.229 486.924C376.229 485.36 376.229 483.704 376.229 482.048C376.229 481.036 376.321 479.932 376.505 478.92C376.689 477.908 377.149 476.896 377.609 475.976C380.553 468.984 384.049 462.176 387.361 455.368C389.293 451.136 391.317 446.996 393.709 443.04C393.985 442.58 394.261 442.212 394.629 441.936C394.997 441.66 395.549 441.476 396.101 441.384C398.677 440.832 401.437 440.924 404.105 441.476C404.841 441.568 405.485 441.752 406.037 442.212C406.681 442.672 406.957 443.408 407.233 444.144C408.429 447.088 407.969 450.216 408.061 453.344C408.153 457.024 408.337 460.704 408.429 464.384C408.521 466.5 408.521 468.616 408.429 470.732C408.429 472.112 408.245 473.492 408.245 474.872C408.245 476.344 408.429 477.908 408.613 479.472C409.165 485.728 409.165 492.076 409.073 498.424C409.073 498.976 409.073 499.436 409.073 499.988ZM394.537 479.288C394.721 479.288 394.997 479.288 395.089 479.196C395.273 479.012 395.273 478.828 395.365 478.644C395.549 477.264 395.549 475.884 395.549 474.504C395.549 470.916 395.457 467.42 395.365 463.924C395.365 463.648 395.273 463.372 394.997 463.372C394.813 463.372 394.721 463.464 394.629 463.648C394.169 464.476 393.709 465.304 393.341 466.132C393.065 466.96 392.513 467.696 392.145 468.524C391.133 471.468 390.121 474.412 389.109 477.356C388.925 477.908 388.833 478.644 389.201 479.012C389.477 479.288 389.937 479.38 390.397 479.38C391.777 479.38 393.157 479.38 394.537 479.288ZM426.517 461.716C426.701 461.532 426.793 461.256 426.977 461.072C428.725 458.496 428.909 455.552 429.001 452.792C429.001 451.872 429.001 450.952 429.001 450.124C429.093 448.928 428.449 447.916 427.529 446.904C427.345 446.628 427.069 446.352 426.701 446.076C426.333 445.892 425.965 445.8 425.505 445.708C422.101 444.88 416.857 444.788 414.373 446.628C412.993 447.64 412.441 448.928 412.073 450.216C411.797 451.412 411.521 452.516 411.245 453.712C410.969 454.908 411.245 456.104 411.429 457.208C411.613 459.048 411.981 460.98 413.913 462.544C414.465 463.004 415.201 463.372 416.029 463.648C417.593 464.2 419.433 463.832 421.089 463.74C422.561 463.74 423.849 463.648 424.953 463.004C425.597 462.636 426.149 462.176 426.517 461.716ZM421.457 450.124C421.825 450.676 421.825 451.228 421.917 451.78C422.009 452.792 422.101 453.804 422.193 454.816C422.193 455.368 422.101 455.92 422.101 456.472C422.009 456.84 422.101 457.208 422.101 457.576C422.009 458.036 422.009 458.404 421.917 458.772C421.917 459.048 421.549 459.232 421.089 459.324C420.721 459.416 420.353 459.416 419.985 459.508C419.341 459.6 418.513 459.324 418.513 458.956C418.421 458.496 418.421 458.036 418.421 457.576C418.513 456.38 418.789 455.184 418.605 453.896C418.513 453.436 418.513 452.884 418.513 452.424C418.513 451.872 418.513 451.32 418.605 450.768C418.605 450.216 419.341 449.848 420.353 449.848C420.721 449.848 421.089 449.94 421.457 450.124ZM453.933 498.7C454.025 498.516 454.209 498.332 454.393 498.148C456.049 495.48 456.233 492.536 456.325 489.776C456.417 488.948 456.417 488.028 456.417 487.108C456.417 485.912 455.865 484.992 454.945 483.888C454.761 483.612 454.485 483.336 454.117 483.152C453.749 482.968 453.289 482.876 452.829 482.692C449.425 481.956 444.273 481.772 441.789 483.612C440.409 484.624 439.857 486.004 439.489 487.292C439.121 488.396 438.937 489.592 438.661 490.788C438.385 491.892 438.661 493.088 438.753 494.284C439.029 496.124 439.397 498.056 441.237 499.528C441.881 499.988 442.525 500.448 443.445 500.724C445.009 501.184 446.757 500.908 448.413 500.816C449.977 500.724 451.173 500.632 452.369 499.988C453.013 499.62 453.473 499.252 453.933 498.7ZM448.781 487.108C449.149 487.66 449.241 488.304 449.333 488.856C449.333 489.868 449.517 490.88 449.517 491.892C449.517 492.444 449.517 492.904 449.425 493.456C449.425 493.824 449.425 494.192 449.425 494.652C449.425 495.02 449.425 495.388 449.333 495.848C449.333 496.124 448.873 496.216 448.505 496.308C448.137 496.4 447.677 496.492 447.309 496.492C446.757 496.584 445.929 496.308 445.837 495.94C445.745 495.572 445.837 495.112 445.837 494.652C445.929 493.456 446.113 492.168 446.021 490.972C445.929 490.42 445.837 489.96 445.837 489.408C445.837 488.856 445.929 488.304 445.929 487.752C446.021 487.2 446.665 486.832 447.677 486.832C448.137 486.832 448.505 486.924 448.781 487.108ZM443.721 458.404C440.961 473.032 437.189 487.844 432.957 502.38C432.037 505.6 430.289 505.968 427.437 505.876C426.241 505.784 425.137 505.324 424.677 504.404C424.309 503.852 424.309 503.116 424.217 502.38C424.033 496.492 425.045 490.328 425.965 484.256C426.885 478.276 427.805 472.296 428.817 466.316C429.369 462.636 429.921 458.864 431.117 455.092C432.129 451.688 432.681 448.192 434.061 444.696C434.337 444.052 434.613 443.316 435.165 442.856C437.465 440.832 445.193 440.188 446.021 442.948C446.297 443.684 446.113 444.512 446.021 445.34C445.377 449.664 444.641 453.988 443.721 458.404Z" fill="#302C26"/>
<path d="M564.324 448.477C564.196 448.541 564.068 448.605 563.94 448.637C563.236 448.861 562.5 448.957 561.764 448.893C561.54 448.861 561.348 448.829 561.156 448.733C560.804 448.605 560.548 448.285 560.42 447.933C560.324 447.709 560.292 447.421 560.292 447.197C560.292 447.133 560.388 446.717 560.356 446.685C560.292 446.621 560.036 446.653 559.94 446.653C559.524 446.653 559.044 446.653 558.66 446.749C558.02 446.909 558.052 447.261 557.988 447.869C557.86 449.181 557.86 450.525 557.892 451.869C558.884 451.997 559.94 451.965 560.932 452.157C561.956 452.317 562.98 452.765 563.556 453.629C563.684 453.821 563.812 454.045 563.972 454.237C564.068 454.397 564.228 454.525 564.324 454.685C564.612 455.069 564.676 455.581 564.708 456.061C564.804 456.989 564.74 457.949 564.58 458.877C564.42 459.741 564.196 460.573 563.812 461.341C563.46 462.077 562.948 462.365 562.244 462.749C560.452 463.741 557.828 464.221 555.908 463.325C554.82 462.813 554.02 461.757 553.572 460.605C553.124 459.453 552.996 458.205 552.9 456.957C552.772 455.773 552.708 454.589 552.74 453.405C552.772 451.965 552.932 450.557 553.124 449.149C553.38 447.069 553.636 445.053 554.884 443.293C555.396 442.557 556.164 441.885 557.092 441.693C557.316 441.629 557.54 441.597 557.796 441.565C558.372 441.501 558.916 441.437 559.492 441.405C560.452 441.373 561.412 441.405 562.244 441.789C563.204 442.237 563.94 443.069 564.324 444.061C564.612 444.765 564.74 445.533 564.772 446.301C564.772 446.877 564.932 447.869 564.516 448.317C564.452 448.381 564.388 448.445 564.324 448.477ZM557.7 456.765C557.668 457.533 557.764 458.269 557.892 459.037C557.924 459.485 558.116 459.741 558.564 459.773C559.3 459.869 560.068 459.933 560.452 459.229C560.548 459.037 560.644 458.845 560.708 458.653C560.964 457.981 560.804 457.213 560.356 456.669C559.908 456.125 559.204 455.805 558.532 455.741C558.276 455.741 557.956 455.773 557.828 455.997C557.764 456.093 557.732 456.221 557.732 456.317C557.7 456.477 557.7 456.605 557.7 456.765ZM570.834 448.541C570.898 448.477 570.93 448.381 570.994 448.317C571.602 447.421 571.666 446.397 571.698 445.437C571.698 445.117 571.698 444.797 571.698 444.509C571.73 444.093 571.506 443.741 571.186 443.389C571.122 443.293 571.026 443.197 570.898 443.101C570.77 443.037 570.642 443.005 570.482 442.973C569.298 442.685 567.474 442.653 566.61 443.293C566.13 443.645 565.938 444.093 565.81 444.541C565.714 444.957 565.618 445.341 565.522 445.757C565.426 446.173 565.522 446.589 565.586 446.973C565.65 447.613 565.778 448.285 566.45 448.829C566.642 448.989 566.898 449.117 567.186 449.213C567.73 449.405 568.37 449.277 568.946 449.245C569.458 449.245 569.906 449.213 570.29 448.989C570.514 448.861 570.706 448.701 570.834 448.541ZM569.074 444.509C569.202 444.701 569.202 444.893 569.234 445.085C569.266 445.437 569.298 445.789 569.33 446.141C569.33 446.333 569.298 446.525 569.298 446.717C569.266 446.845 569.298 446.973 569.298 447.101C569.266 447.261 569.266 447.389 569.234 447.517C569.234 447.613 569.106 447.677 568.946 447.709C568.818 447.741 568.69 447.741 568.562 447.773C568.338 447.805 568.05 447.709 568.05 447.581C568.018 447.421 568.018 447.261 568.018 447.101C568.05 446.685 568.146 446.269 568.082 445.821C568.05 445.661 568.05 445.469 568.05 445.309C568.05 445.117 568.05 444.925 568.082 444.733C568.082 444.541 568.338 444.413 568.69 444.413C568.818 444.413 568.946 444.445 569.074 444.509ZM580.37 461.405C580.402 461.341 580.466 461.277 580.53 461.213C581.106 460.285 581.17 459.261 581.202 458.301C581.234 458.013 581.234 457.693 581.234 457.373C581.234 456.957 581.042 456.637 580.722 456.253C580.658 456.157 580.562 456.061 580.434 455.997C580.306 455.933 580.146 455.901 579.986 455.837C578.802 455.581 577.01 455.517 576.146 456.157C575.666 456.509 575.474 456.989 575.346 457.437C575.218 457.821 575.154 458.237 575.058 458.653C574.962 459.037 575.058 459.453 575.09 459.869C575.186 460.509 575.314 461.181 575.954 461.693C576.178 461.853 576.402 462.013 576.722 462.109C577.266 462.269 577.874 462.173 578.45 462.141C578.994 462.109 579.41 462.077 579.826 461.853C580.05 461.725 580.21 461.597 580.37 461.405ZM578.578 457.373C578.706 457.565 578.738 457.789 578.77 457.981C578.77 458.333 578.834 458.685 578.834 459.037C578.834 459.229 578.834 459.389 578.802 459.581C578.802 459.709 578.802 459.837 578.802 459.997C578.802 460.125 578.802 460.253 578.77 460.413C578.77 460.509 578.61 460.541 578.482 460.573C578.354 460.605 578.194 460.637 578.066 460.637C577.874 460.669 577.586 460.573 577.554 460.445C577.522 460.317 577.554 460.157 577.554 459.997C577.586 459.581 577.65 459.133 577.618 458.717C577.586 458.525 577.554 458.365 577.554 458.173C577.554 457.981 577.586 457.789 577.586 457.597C577.618 457.405 577.842 457.277 578.194 457.277C578.354 457.277 578.482 457.309 578.578 457.373ZM576.818 447.389C575.858 452.477 574.546 457.629 573.074 462.685C572.754 463.805 572.146 463.933 571.154 463.901C570.738 463.869 570.354 463.709 570.194 463.389C570.066 463.197 570.066 462.941 570.034 462.685C569.97 460.637 570.322 458.493 570.642 456.381C570.962 454.301 571.282 452.221 571.634 450.141C571.826 448.861 572.018 447.549 572.434 446.237C572.786 445.053 572.978 443.837 573.458 442.621C573.554 442.397 573.65 442.141 573.842 441.981C574.642 441.277 577.33 441.053 577.618 442.013C577.714 442.269 577.65 442.557 577.618 442.845C577.394 444.349 577.138 445.853 576.818 447.389Z" fill="#302C26"/>
<path d="M603.005 395.915C602.941 395.883 602.845 395.883 602.653 395.883C602.365 395.851 602.045 395.851 601.757 395.915C601.405 395.947 601.021 395.979 600.829 396.331C600.349 397.163 600.381 398.059 600.541 398.987C600.605 399.243 600.669 399.499 600.893 399.659C601.021 399.723 601.149 399.755 601.309 399.755C602.429 399.883 603.549 399.723 604.637 399.819C605.373 399.883 606.141 400.075 606.749 400.491C607.741 401.163 607.965 402.443 608.093 403.531C608.221 404.907 608.093 406.283 607.997 407.659C607.837 409.451 607.453 411.595 605.725 412.523C605.021 412.939 604.157 413.035 603.357 413.035C602.557 413.003 601.725 412.907 600.925 412.875C600.061 412.843 599.197 412.907 598.301 412.907C597.629 412.875 596.861 412.747 596.445 412.203C596.061 411.691 596.157 410.987 596.157 410.315C596.157 409.547 596.061 408.683 596.509 408.043C596.829 407.627 597.341 407.371 597.853 407.275C598.365 407.147 598.877 407.179 599.421 407.211C600.253 407.243 601.149 407.371 601.981 407.147C602.525 407.019 603.069 406.667 603.293 406.155C603.453 405.835 603.485 405.483 603.453 405.131C603.453 404.651 603.357 404.171 603.005 403.851C602.589 403.499 601.981 403.499 601.437 403.499C600.349 403.531 599.261 403.403 598.205 403.179C597.789 403.115 597.341 402.987 597.021 402.699C596.573 402.283 596.445 401.643 596.381 401.035C596.029 398.411 596.029 395.755 596.349 393.131C596.445 392.363 596.637 391.435 597.405 391.051C597.917 390.795 598.429 390.699 598.973 390.635C599.549 390.571 600.093 390.539 600.637 390.507C602.013 390.475 603.357 390.443 604.733 390.443C605.181 390.443 605.661 390.539 606.109 390.603C606.557 390.667 606.941 390.923 607.133 391.371C607.229 391.595 607.325 391.787 607.421 392.011C607.613 392.459 607.645 392.907 607.517 393.387C607.421 393.771 607.549 394.155 607.517 394.539C607.453 395.051 607.357 395.595 607.357 396.139C607.357 396.299 607.357 396.459 607.293 396.587C607.133 397.003 606.621 397.099 606.205 397.163C605.469 397.227 604.733 397.227 604.029 397.195C603.741 397.163 603.421 397.131 603.229 396.939C603.037 396.747 603.037 396.459 603.037 396.203C603.037 396.043 603.037 395.979 603.005 395.915ZM614.188 397.771C614.252 397.707 614.284 397.611 614.348 397.547C614.956 396.651 615.02 395.627 615.052 394.667C615.052 394.347 615.052 394.027 615.052 393.739C615.084 393.323 614.86 392.971 614.54 392.619C614.476 392.523 614.38 392.427 614.252 392.331C614.124 392.267 613.996 392.235 613.836 392.203C612.652 391.915 610.828 391.883 609.964 392.523C609.484 392.875 609.292 393.323 609.164 393.771C609.068 394.187 608.972 394.571 608.876 394.987C608.78 395.403 608.876 395.819 608.94 396.203C609.004 396.843 609.132 397.515 609.804 398.059C609.996 398.219 610.252 398.347 610.54 398.443C611.084 398.635 611.724 398.507 612.3 398.475C612.812 398.475 613.26 398.443 613.644 398.219C613.868 398.091 614.06 397.931 614.188 397.771ZM612.428 393.739C612.556 393.931 612.556 394.123 612.588 394.315C612.62 394.667 612.652 395.019 612.684 395.371C612.684 395.563 612.652 395.755 612.652 395.947C612.62 396.075 612.652 396.203 612.652 396.331C612.62 396.491 612.62 396.619 612.588 396.747C612.588 396.843 612.46 396.907 612.3 396.939C612.172 396.971 612.044 396.971 611.916 397.003C611.692 397.035 611.404 396.939 611.404 396.811C611.372 396.651 611.372 396.491 611.372 396.331C611.404 395.915 611.5 395.499 611.436 395.051C611.404 394.891 611.404 394.699 611.404 394.539C611.404 394.347 611.404 394.155 611.436 393.963C611.436 393.771 611.692 393.643 612.044 393.643C612.172 393.643 612.3 393.675 612.428 393.739ZM623.724 410.635C623.756 410.571 623.82 410.507 623.884 410.443C624.46 409.515 624.524 408.491 624.556 407.531C624.588 407.243 624.588 406.923 624.588 406.603C624.588 406.187 624.396 405.867 624.076 405.483C624.012 405.387 623.916 405.291 623.788 405.227C623.66 405.163 623.5 405.131 623.34 405.067C622.156 404.811 620.364 404.747 619.5 405.387C619.02 405.739 618.828 406.219 618.7 406.667C618.572 407.051 618.508 407.467 618.412 407.883C618.316 408.267 618.412 408.683 618.444 409.099C618.54 409.739 618.668 410.411 619.308 410.923C619.532 411.083 619.756 411.243 620.076 411.339C620.62 411.499 621.228 411.403 621.804 411.371C622.348 411.339 622.764 411.307 623.18 411.083C623.404 410.955 623.564 410.827 623.724 410.635ZM621.932 406.603C622.06 406.795 622.092 407.019 622.124 407.211C622.124 407.563 622.188 407.915 622.188 408.267C622.188 408.459 622.188 408.619 622.156 408.811C622.156 408.939 622.156 409.067 622.156 409.227C622.156 409.355 622.156 409.483 622.124 409.643C622.124 409.739 621.964 409.771 621.836 409.803C621.708 409.835 621.548 409.867 621.42 409.867C621.228 409.899 620.94 409.803 620.908 409.675C620.876 409.547 620.908 409.387 620.908 409.227C620.94 408.811 621.004 408.363 620.972 407.947C620.94 407.755 620.908 407.595 620.908 407.403C620.908 407.211 620.94 407.019 620.94 406.827C620.972 406.635 621.196 406.507 621.548 406.507C621.708 406.507 621.836 406.539 621.932 406.603ZM620.172 396.619C619.212 401.707 617.9 406.859 616.428 411.915C616.108 413.035 615.5 413.163 614.508 413.131C614.092 413.099 613.708 412.939 613.548 412.619C613.42 412.427 613.42 412.171 613.388 411.915C613.324 409.867 613.676 407.723 613.996 405.611C614.316 403.531 614.636 401.451 614.988 399.371C615.18 398.091 615.372 396.779 615.788 395.467C616.14 394.283 616.332 393.067 616.812 391.851C616.908 391.627 617.004 391.371 617.196 391.211C617.996 390.507 620.684 390.283 620.972 391.243C621.068 391.499 621.004 391.787 620.972 392.075C620.748 393.579 620.492 395.083 620.172 396.619Z" fill="#302C26"/>
<path d="M626.394 335.447C626.33 335.415 626.234 335.415 626.042 335.415C625.754 335.383 625.434 335.383 625.146 335.447C624.794 335.479 624.41 335.511 624.218 335.863C623.738 336.695 623.77 337.591 623.93 338.519C623.994 338.775 624.058 339.031 624.282 339.191C624.41 339.255 624.538 339.287 624.698 339.287C625.818 339.415 626.938 339.255 628.026 339.351C628.762 339.415 629.53 339.607 630.138 340.023C631.13 340.695 631.354 341.975 631.482 343.063C631.61 344.439 631.482 345.815 631.386 347.191C631.226 348.983 630.842 351.127 629.114 352.055C628.41 352.471 627.546 352.567 626.746 352.567C625.946 352.535 625.114 352.439 624.314 352.407C623.45 352.375 622.586 352.439 621.69 352.439C621.018 352.407 620.25 352.279 619.834 351.735C619.45 351.223 619.546 350.519 619.546 349.847C619.546 349.079 619.45 348.215 619.898 347.575C620.218 347.159 620.73 346.903 621.242 346.807C621.754 346.679 622.266 346.711 622.81 346.743C623.642 346.775 624.538 346.903 625.37 346.679C625.914 346.551 626.458 346.199 626.682 345.687C626.842 345.367 626.874 345.015 626.842 344.663C626.842 344.183 626.746 343.703 626.394 343.383C625.978 343.031 625.37 343.031 624.826 343.031C623.738 343.063 622.65 342.935 621.594 342.711C621.178 342.647 620.73 342.519 620.41 342.231C619.962 341.815 619.834 341.175 619.77 340.567C619.418 337.943 619.418 335.287 619.738 332.663C619.834 331.895 620.026 330.967 620.794 330.583C621.306 330.327 621.818 330.231 622.362 330.167C622.938 330.103 623.482 330.071 624.026 330.039C625.402 330.007 626.746 329.975 628.122 329.975C628.57 329.975 629.05 330.071 629.498 330.135C629.946 330.199 630.33 330.455 630.522 330.903C630.618 331.127 630.714 331.319 630.81 331.543C631.002 331.991 631.034 332.439 630.906 332.919C630.81 333.303 630.938 333.687 630.906 334.071C630.842 334.583 630.746 335.127 630.746 335.671C630.746 335.831 630.746 335.991 630.682 336.119C630.522 336.535 630.01 336.631 629.594 336.695C628.858 336.759 628.122 336.759 627.418 336.727C627.13 336.695 626.81 336.663 626.618 336.471C626.426 336.279 626.426 335.991 626.426 335.735C626.426 335.575 626.426 335.511 626.394 335.447ZM637.577 337.303C637.641 337.239 637.673 337.143 637.737 337.079C638.345 336.183 638.409 335.159 638.441 334.199C638.441 333.879 638.441 333.559 638.441 333.271C638.473 332.855 638.249 332.503 637.929 332.151C637.865 332.055 637.769 331.959 637.641 331.863C637.513 331.799 637.385 331.767 637.225 331.735C636.041 331.447 634.217 331.415 633.353 332.055C632.873 332.407 632.681 332.855 632.553 333.303C632.457 333.719 632.361 334.103 632.265 334.519C632.169 334.935 632.265 335.351 632.329 335.735C632.393 336.375 632.521 337.047 633.193 337.591C633.385 337.751 633.641 337.879 633.929 337.975C634.473 338.167 635.113 338.039 635.689 338.007C636.201 338.007 636.649 337.975 637.033 337.751C637.257 337.623 637.449 337.463 637.577 337.303ZM635.817 333.271C635.945 333.463 635.945 333.655 635.977 333.847C636.009 334.199 636.041 334.551 636.073 334.903C636.073 335.095 636.041 335.287 636.041 335.479C636.009 335.607 636.041 335.735 636.041 335.863C636.009 336.023 636.009 336.151 635.977 336.279C635.977 336.375 635.849 336.439 635.689 336.471C635.561 336.503 635.433 336.503 635.305 336.535C635.081 336.567 634.793 336.471 634.793 336.343C634.761 336.183 634.761 336.023 634.761 335.863C634.793 335.447 634.889 335.031 634.825 334.583C634.793 334.423 634.793 334.231 634.793 334.071C634.793 333.879 634.793 333.687 634.825 333.495C634.825 333.303 635.081 333.175 635.433 333.175C635.561 333.175 635.689 333.207 635.817 333.271ZM647.113 350.167C647.145 350.103 647.209 350.039 647.273 349.975C647.849 349.047 647.913 348.023 647.945 347.063C647.977 346.775 647.977 346.455 647.977 346.135C647.977 345.719 647.785 345.399 647.465 345.015C647.401 344.919 647.305 344.823 647.177 344.759C647.049 344.695 646.889 344.663 646.729 344.599C645.545 344.343 643.753 344.279 642.889 344.919C642.409 345.271 642.217 345.751 642.089 346.199C641.961 346.583 641.897 346.999 641.801 347.415C641.705 347.799 641.801 348.215 641.833 348.631C641.929 349.271 642.057 349.943 642.697 350.455C642.921 350.615 643.145 350.775 643.465 350.871C644.009 351.031 644.617 350.935 645.193 350.903C645.737 350.871 646.153 350.839 646.569 350.615C646.793 350.487 646.953 350.359 647.113 350.167ZM645.321 346.135C645.449 346.327 645.481 346.551 645.513 346.743C645.513 347.095 645.577 347.447 645.577 347.799C645.577 347.991 645.577 348.151 645.545 348.343C645.545 348.471 645.545 348.599 645.545 348.759C645.545 348.887 645.545 349.015 645.513 349.175C645.513 349.271 645.353 349.303 645.225 349.335C645.097 349.367 644.937 349.399 644.809 349.399C644.617 349.431 644.329 349.335 644.297 349.207C644.265 349.079 644.297 348.919 644.297 348.759C644.329 348.343 644.393 347.895 644.361 347.479C644.329 347.287 644.297 347.127 644.297 346.935C644.297 346.743 644.329 346.551 644.329 346.359C644.361 346.167 644.585 346.039 644.937 346.039C645.097 346.039 645.225 346.071 645.321 346.135ZM643.561 336.151C642.601 341.239 641.289 346.391 639.817 351.447C639.497 352.567 638.889 352.695 637.897 352.663C637.481 352.631 637.097 352.471 636.937 352.151C636.809 351.959 636.809 351.703 636.777 351.447C636.713 349.399 637.065 347.255 637.385 345.143C637.705 343.063 638.025 340.983 638.377 338.903C638.569 337.623 638.761 336.311 639.177 334.999C639.529 333.815 639.721 332.599 640.201 331.383C640.297 331.159 640.393 330.903 640.585 330.743C641.385 330.039 644.073 329.815 644.361 330.775C644.457 331.031 644.393 331.319 644.361 331.607C644.137 333.111 643.881 334.615 643.561 336.151Z" fill="#302C26"/>
<path d="M245.5 196.399C245.5 202.29 250.275 207.066 256.166 207.066C262.057 207.066 266.833 202.29 266.833 196.399C266.833 190.508 262.057 185.732 256.166 185.732C250.275 185.732 245.5 190.508 245.5 196.399ZM152.935 93.168L154.349 91.7538L153.764 91.168H152.935V93.168ZM0.333333 93.168C0.333333 99.059 5.10896 103.835 11 103.835C16.891 103.835 21.6667 99.059 21.6667 93.168C21.6667 87.2769 16.891 82.5013 11 82.5013C5.10896 82.5013 0.333333 87.2769 0.333333 93.168ZM257.58 194.985L154.349 91.7538L151.521 94.5822L254.752 197.813L257.58 194.985ZM152.935 91.168H11V95.168H152.935V91.168Z" fill="#302C26"/>
<path d="M301.936 486.174C301.936 480.283 306.712 475.507 312.603 475.507C318.494 475.507 323.27 480.283 323.27 486.174C323.27 492.065 318.494 496.841 312.603 496.841C306.712 496.841 301.936 492.065 301.936 486.174ZM209.372 589.405L210.786 590.819L210.2 591.405H209.372V589.405ZM36.7702 589.405C36.7702 583.514 41.5459 578.738 47.4369 578.738C53.3279 578.738 58.1036 583.514 58.1036 589.405C58.1036 595.296 53.3279 600.072 47.4369 600.072C41.5459 600.072 36.7702 595.296 36.7702 589.405ZM314.017 487.588L210.786 590.819L207.958 587.991L311.189 484.76L314.017 487.588ZM209.372 591.405H47.4369V587.405H209.372V591.405Z" fill="#302C26"/>
<path d="M612.672 481.736C612.672 475.845 607.896 471.069 602.005 471.069C596.114 471.069 591.339 475.845 591.339 481.736C591.339 487.627 596.114 492.403 602.005 492.403C607.896 492.403 612.672 487.627 612.672 481.736ZM719.312 599.043L717.898 600.457L718.484 601.043H719.312V599.043ZM841.914 599.043C841.914 593.152 837.139 588.376 831.248 588.376C825.357 588.376 820.581 593.152 820.581 599.043C820.581 604.934 825.357 609.71 831.248 609.71C837.139 609.71 841.914 604.934 841.914 599.043ZM600.591 483.15L717.898 600.457L720.727 597.629L603.42 480.322L600.591 483.15ZM719.312 601.043H831.248V597.043H719.312V601.043Z" fill="#302C26"/>
<path d="M799.558 414.615C799.558 420.506 804.333 425.281 810.224 425.281C816.115 425.281 820.891 420.506 820.891 414.615C820.891 408.724 816.115 403.948 810.224 403.948C804.333 403.948 799.558 408.724 799.558 414.615ZM632.763 414.615C632.763 420.506 637.539 425.281 643.43 425.281C649.321 425.281 654.097 420.506 654.097 414.615C654.097 408.724 649.321 403.948 643.43 403.948C637.539 403.948 632.763 408.724 632.763 414.615ZM810.224 412.615L643.43 412.615L643.43 416.615L810.224 416.615L810.224 412.615Z" fill="#302C26"/>
<path d="M795.848 142.067C795.848 147.958 800.624 152.734 806.515 152.734C812.406 152.734 817.181 147.958 817.181 142.067C817.181 136.176 812.406 131.4 806.515 131.4C800.624 131.4 795.848 136.176 795.848 142.067ZM731.984 339.968V341.968H733.368L733.856 340.673L731.984 339.968ZM656.319 339.968C656.319 345.859 661.095 350.634 666.986 350.634C672.877 350.634 677.653 345.859 677.653 339.968C677.653 334.077 672.877 329.301 666.986 329.301C661.095 329.301 656.319 334.077 656.319 339.968ZM804.643 141.362L730.113 339.263L733.856 340.673L808.386 142.772L804.643 141.362ZM731.984 337.968H666.986V341.968H731.984V337.968Z" fill="#302C26"/>
</svg>
