<svg width="1920" height="702" viewBox="0 0 1920 702" fill="none" xmlns="http://www.w3.org/2000/svg">
<g clip-path="url(#clip0_100_3218)">
<path d="M1902 60C1898.27 62.3707 1877.57 3.1496 1859.55 4.74133C1841.53 6.33306 1839.63 0 1834.89 0C1830.15 0 1812.13 14.2579 1795.07 15.0368C1778 15.8157 1778 9.48266 1768.51 6.33307C1759.03 3.18347 1754.29 11.0744 1741.96 18.2202C1729.64 25.3322 1710.67 21.4037 1689.81 30.8864C1668.95 40.369 1664.21 64.6514 1649.03 66.2431C1633.86 67.8348 1624.38 65.4642 1620.59 66.2431C1616.79 67.022 1605.41 73.3551 1587.4 76.166C1584.11 76.674 1580.66 77.9948 1577.17 79.7897C1562.2 78.0964 1549.19 76.3354 1539.51 76.3354C1482.24 76.3354 1482.24 142.312 1440.86 156.298C1428.63 160.43 1408.61 153.318 1384.57 165.646C1375.93 162.293 1351.04 153.217 1338.48 155.96C1325.91 158.703 1285.1 218.09 1266.27 203.291C1247.44 188.491 1222.35 215.178 1209.78 215.178C1197.22 215.178 1184.65 248.481 1159.56 242.994C1134.46 237.542 1118.75 239.472 1096.77 236.729C1074.79 233.986 1061.38 229.515 1036.28 227.043C1011.16 224.605 994.493 226.874 978.813 235.103C963.133 243.299 927.302 226.061 895.907 237C864.513 247.939 852.152 219.999 823.907 211.803C795.662 203.608 786.721 191.754 749.942 201.169C742.119 203.167 693.046 166.884 687.594 164.683C646.446 147.953 623.315 162.312 611.326 159.162C599.304 155.979 595.883 141.16 570.178 137.977C544.44 134.793 522.155 139.026 510.133 137.435C498.144 135.843 463.837 156.468 453.542 154.097C443.246 151.726 419.235 130.797 407.246 130.932C395.257 131.102 381.507 137.435 381.507 137.435C381.507 137.435 310.591 81.5508 285.326 79.1463C237.947 74.6082 208.076 84.4295 192.633 81.2799C177.19 78.0964 122.191 60.5874 99.9065 62.3484C77.6223 64.0756 3.25119 69.7314 0 73.0503V700.104L1920 702V322.613V76.166L1902 60Z" fill="#FFC328"/>
<g clip-path="url(#clip1_100_3218)">
<path d="M1400.89 134.994C1400.6 133.935 1400.41 132.847 1400.33 131.75C1399.47 129.704 1399.95 127.182 1400.44 125.039C1400.58 124.4 1400.49 123.603 1400.72 122.993C1401.62 119.691 1397.97 116.83 1399.29 111.838C1399.57 110.523 1400.09 109.271 1400.31 107.946C1400.7 105.069 1400.21 102.142 1400.15 99.2476C1400.03 98.5416 1400.39 97.9823 1400.77 97.4345C1401.23 96.5011 1400.64 95.0891 1401.48 94.4853C1401.63 94.6113 1401.79 94.7316 1401.94 94.8577C1401.64 94.2901 1402.29 93.4605 1402.9 93.692C1403.04 93.0733 1403.97 93.2266 1403.94 93.837C1404.47 93.4004 1404.89 94.22 1404.82 94.7217C1405.77 94.1327 1405.65 97.2046 1405.63 97.7195C1405.39 99.129 1405.11 100.529 1405.23 101.969C1405.3 104.61 1405.27 107.254 1405.14 109.889C1405.1 110.735 1404.49 112.747 1405.69 112.611C1408.43 111.964 1409.23 109.472 1412.51 110.663C1413.74 110.395 1413.1 108.777 1413.25 107.897C1414.04 105.825 1415.8 105.709 1414.32 102.922C1413.45 101.518 1411.85 99.5656 1413.18 97.9897C1413.79 97.5827 1413.99 96.9838 1414.05 96.2729C1414.3 95.4137 1415.06 94.6781 1415.81 94.2225C1416.33 94.0289 1416.87 94.4013 1417.29 94.7646C1418.16 95.5192 1418.99 96.3166 1419.78 97.1577C1420.46 98.0506 1421.4 98.5383 1422.52 98.4337C1427 98.8003 1428.49 104.79 1432.56 106.025C1434.24 106.247 1435.8 107.591 1433.81 108.854C1432.98 109.546 1430.13 109.21 1430.23 110.556C1429.37 112.901 1429.56 115.54 1428.63 117.857C1428.34 118.597 1427.86 119.351 1427.1 119.569C1425.78 119.732 1423.7 119.368 1424.67 121.488C1427.65 127.167 1421.85 127.676 1424.62 133.319C1425.86 136.369 1422.63 138.658 1425.44 143.086C1426.01 143.851 1426.51 144.634 1426.71 145.576C1426.92 146.084 1427.39 146.432 1427.65 146.916C1427.82 147.302 1428.04 147.913 1428.56 147.796C1428.49 149.979 1431.77 152.921 1431.12 149.034C1430.79 147.742 1429.77 148.315 1430.03 147.946C1429.62 147.922 1429.21 147.849 1428.82 147.718C1428.8 147.54 1428.82 147.361 1428.89 147.196C1428.72 147.259 1428.55 147.317 1428.38 147.375C1428.31 147.114 1428.23 146.852 1428.16 146.586C1427.37 146.478 1426.42 144.987 1426.95 144.246C1426.45 143.603 1427.45 142.815 1427.94 142.448C1427.86 142.448 1427.8 142.448 1427.73 142.443C1428.33 142.094 1429.04 141.94 1429.73 142.003C1429.66 141.964 1429.58 141.92 1429.51 141.882C1430.43 141.737 1431.4 141.92 1432.2 142.394C1432.16 142.298 1432.12 142.196 1432.08 142.099C1432.66 142.529 1433.43 142.82 1434.14 142.916C1434.35 142.699 1434.82 143.508 1434.86 142.989C1436.72 144.028 1438.29 145.599 1439.32 147.481C1439.37 147.599 1439.55 147.765 1439.63 147.587C1440.52 149.821 1439.76 152.621 1437.85 154.061C1436.08 155.58 1433.17 155.293 1431.58 157.039C1431.03 158.819 1430.08 159.427 1428.21 159.597C1425.02 159.969 1421.78 159.878 1418.62 159.331C1418.15 159.249 1417.65 159.166 1417.22 159.38C1415.67 160.689 1416.21 160.284 1414.36 160.032C1413.77 160.25 1412.96 160.08 1412.95 159.316C1412.27 159.278 1411.59 159.964 1411 159.631C1410.86 159.549 1410.74 159.413 1410.58 159.38C1410.15 159.432 1409.72 159.427 1409.85 158.839C1411.61 156.406 1406.83 154.07 1407.55 150.213C1407.43 150.013 1407.54 149.816 1407.68 149.613C1408.47 148.811 1407.55 147.985 1407.31 147.205C1407.23 147.347 1407.09 147.217 1407.03 147.118C1405.42 144.343 1403.42 141.63 1402.42 138.564C1402.41 138.676 1402.39 138.787 1402.38 138.898C1401.74 137.703 1401.26 136.423 1400.98 135.098C1400.93 135.103 1400.9 135.04 1400.89 134.992V134.994Z" fill="#FFC328"/>
</g>
<path d="M514.143 117.027C513.737 117.03 513.335 117.108 512.958 117.251C514.03 116.152 515.719 115.699 517.197 116.113C517.006 116.001 516.814 115.889 516.62 115.777C518.129 115.729 519.434 116.3 520.821 116.562C522.244 116.685 523.658 116.517 525.011 116.011C526.584 115.628 527.92 114.801 529.275 113.954C535.353 110.942 541.202 116.698 548.542 112.565C549.077 112.215 549.542 111.769 550.02 111.344C552.152 109.432 554.756 107.879 557.597 107.408C558.77 107.249 558.365 106.135 558.591 105.358C558.692 105.137 558.888 104.966 558.967 104.735C559.074 104.426 558.948 104.091 558.833 103.783C558.308 102.397 557.938 100.9 558.172 99.4357C558.132 99.455 558.115 99.4469 558.075 99.4688C557.844 97.8858 557.282 97.6749 559.084 97.0385C560.68 96.7646 562.057 98.015 563.325 98.8105C563.236 98.7356 563.178 98.6252 563.167 98.5085C564.689 98.6807 565.819 98.6202 566.982 99.7863C566.957 99.7009 567.068 99.6915 567.121 99.7314C567.659 99.9785 567.741 100.568 567.8 101.091C567.939 101.586 568.442 101.511 568.848 101.533C569.324 101.561 569.795 101.61 570.264 101.696C571.399 101.958 572.991 102.332 573.537 103.457C573.965 103.555 574.765 103.907 574.457 104.45C574.081 105.358 578.841 106.432 579.625 106.735C580.352 106.886 579.821 107.667 579.676 108.087C580.107 109.598 578.943 110.145 577.659 110.34C578.132 110.578 578.221 111.277 577.932 111.719C577.272 112.662 575.968 112.398 574.98 112.292C574.196 112.169 573.499 112.442 572.879 112.885C572.462 113.068 571.968 112.965 571.545 113.132C570.661 113.458 572.061 114.568 571.837 116.066C571.668 115.616 571.195 115.261 570.755 115.063C571.249 115.406 571.249 116.294 571.104 116.807C570.726 116.454 570.104 116.246 569.59 116.309C569.794 116.356 569.981 116.463 570.123 116.617C569.776 116.617 569.428 116.647 569.086 116.707C569.2 116.852 569.162 117.113 569.317 117.211C569.758 117.491 570.062 117.981 570.115 118.498C570.021 118.369 569.813 118.224 569.66 118.171C570.182 118.662 570.483 119.375 570.476 120.087C570.398 119.71 569.994 119.399 569.618 119.311C570.276 120.004 570.403 121.027 570.289 121.941C570.085 121.535 569.695 121.244 569.265 121.087C569.62 121.266 569.79 121.74 569.631 122.104C569.594 121.853 569.173 121.852 569.056 122.079C568.824 122.616 569.494 122.949 569.772 123.305C569.646 123.167 569.462 123.087 569.277 123.089C568.694 123.612 568.834 124.544 569.022 125.305C569.334 126.917 569.997 127.733 571.594 128.133C574.262 128.987 575.025 131.243 577.92 131.607C580.399 132.521 578.54 135.094 576.097 134.17C574.442 133.517 573.046 133.405 571.335 133.972C570.445 133.688 569.524 133.364 568.642 133.062C568.455 132.998 568.258 132.933 568.061 132.963C567.55 133.044 567.309 133.714 566.805 133.829C566.796 133.591 566.785 133.353 566.775 133.114C566.61 133.38 566.445 133.646 566.278 133.909C565.809 133.02 565.025 132.304 564.1 131.914C564.877 132.965 565.512 134.154 566.377 135.128C566.664 135.319 567.038 135.269 567.382 135.306C568.046 135.38 568.651 135.842 568.895 136.463C569.34 137.439 568.474 138.337 567.483 138.385C564.573 138.634 562.872 135.053 560.078 134.853C560.012 134.999 559.945 135.148 559.879 135.294C558.845 134.589 557.754 133.965 556.62 133.432L556.922 134.554C555.427 132.114 556.414 132.377 553.478 132.069C552.429 131.772 552.366 133.018 551.557 132.508C551.097 132.344 550.158 131.442 549.741 131.82C549.617 131.984 549.728 132.249 549.598 132.41C549.51 132.522 549.349 132.534 549.208 132.537C548.517 132.55 547.827 132.563 547.135 132.576C547.497 133.316 548.005 133.984 548.622 134.531C548.026 134.431 547.451 134.22 546.934 133.907C547.241 134.222 547.549 134.535 547.856 134.851C546.649 134.116 545.445 133.381 544.239 132.646C544.434 132.883 544.628 133.119 544.82 133.358C543.719 132.765 542.617 132.174 541.512 131.582C541.78 131.784 542.05 131.988 542.317 132.189C541.127 131.91 539.94 131.632 538.751 131.353C538.888 131.519 539.027 131.684 539.166 131.848C538.151 131.298 537.137 130.748 536.124 130.197C536.198 130.3 536.23 130.434 536.214 130.559C533.826 128.835 532.51 132.643 530.458 133.134C529.567 133.315 528.781 133.691 528.17 134.38C525.924 136.472 522.926 138.17 521.899 141.224C521.766 141.717 521.351 142.276 520.904 141.842C520.091 141.129 520.855 140.505 520.202 139.962C519.788 139.471 520.092 138.732 520.406 138.172C521.137 137.076 521.556 135.56 522.721 134.855C522.611 134.828 522.68 134.71 522.748 134.672C523.267 134.272 523.762 133.812 524.041 133.22C524.372 132.523 524.344 131.417 523.564 131.07C523.126 131.045 522.693 130.95 522.255 130.909C520.471 130.977 520.097 133.305 518.594 133.938C518.536 134.555 517.792 135.27 517.185 135.104C516.752 135.001 516.464 134.471 515.968 134.454C515.398 134.498 515.017 134.066 515.058 133.489C515.029 132.769 515.511 132.235 515.909 131.712C515.687 131.747 515.446 131.846 515.287 131.976C515.36 131.188 516.293 130.69 516.969 130.394C517.253 130.133 517.562 129.892 517.867 129.653C519.209 128.379 520.915 127.439 521.778 125.738C522.381 124.896 521.523 124.038 520.771 123.693C521.032 123.532 521.365 123.489 521.659 123.582C521.564 123.472 521.467 123.363 521.374 123.255C521.515 123.218 521.658 123.181 521.801 123.145C521.528 122.95 521.238 122.781 520.932 122.642C521.061 122.487 521.225 122.359 521.404 122.266C521.278 122.16 521.089 122.129 520.935 122.192C520.978 121.915 521.085 121.649 521.247 121.422C521.116 121.488 520.995 121.583 520.9 121.696C520.961 121.488 521.023 121.278 521.084 121.068C519.886 121.412 518.69 121.951 517.865 122.897C517.944 122.518 518.114 122.173 518.336 121.858C517.82 122.129 517.235 122.651 516.656 122.732C516.765 122.371 517.12 122.016 517.499 121.701C517.093 121.923 516.713 122.191 516.371 122.515C516.367 122.454 516.365 122.392 516.365 122.331C515.686 123.046 515.002 123.764 514.32 124.479C514.025 123.809 513.857 123.081 513.831 122.349C513.67 122.716 513.508 123.087 513.346 123.454C513.127 122.711 513.061 121.923 513.151 121.154C512.861 121.401 512.622 121.713 512.46 122.058C512.286 120.895 512.538 119.675 513.157 118.674C512.773 118.908 512.387 119.138 512 119.371C512.376 118.352 513.164 117.494 514.143 117.025L514.143 117.027Z" fill="#FFC328"/>
</g>
<defs>
<clipPath id="clip0_100_3218">
<rect width="1920" height="702" fill="white"/>
</clipPath>
<clipPath id="clip1_100_3218">
<rect width="41" height="68" fill="white" transform="translate(1399 93)"/>
</clipPath>
</defs>
</svg>
